<?xml version="1.0" encoding="UTF-8" standalone="no"?>
<!DOCTYPE svg PUBLIC "-//W3C//DTD SVG 1.1//EN"
 "http://www.w3.org/Graphics/SVG/1.1/DTD/svg11.dtd">
<!-- Generated by graphviz version 2.40.1 (20161225.0304)
 -->
<!-- Title: callgraph Pages: 1 -->
<svg width="757pt" height="476pt"
 viewBox="0.00 0.00 757.00 476.00" xmlns="http://www.w3.org/2000/svg" xmlns:xlink="http://www.w3.org/1999/xlink">
<g id="graph0" class="graph" transform="scale(1 1) rotate(0) translate(4 472)">
<title>callgraph</title>
<polygon fill="#ffffff" stroke="transparent" points="-4,4 -4,-472 753,-472 753,4 -4,4"/>
<!-- a0 -->
<g id="node1" class="node">
<title>a0</title>
<ellipse fill="none" stroke="#000000" cx="27" cy="-306" rx="27" ry="18"/>
<text text-anchor="middle" x="27" y="-302.3" font-family="Times,serif" font-size="14.00" fill="#000000">x0</text>
</g>
<!-- a2 -->
<g id="node3" class="node">
<title>a2</title>
<polygon fill="#cccccc" stroke="transparent" points="269,-241 269,-247 289,-247 289,-241 269,-241"/>
<polygon fill="none" stroke="#000000" points="269,-241 269,-247 289,-247 289,-241 269,-241"/>
<polygon fill="#cccccc" stroke="transparent" points="289,-241 289,-247 309,-247 309,-241 289,-241"/>
<polygon fill="none" stroke="#000000" points="289,-241 289,-247 309,-247 309,-241 289,-241"/>
<polygon fill="none" stroke="#000000" points="269,-220 269,-241 309,-241 309,-220 269,-220"/>
<text text-anchor="start" x="284.5" y="-226.8" font-family="Times,serif" font-size="14.00" fill="#000000">+</text>
</g>
<!-- a0&#45;&gt;a2 -->
<g id="edge65" class="edge">
<title>a0&#45;&gt;a2:p0</title>
<path fill="none" stroke="#000000" d="M49.3715,-295.4888C55.633,-292.8018 62.5042,-290.0859 69,-288 88.5484,-281.7226 217.1363,-250.9481 258.7821,-244.9973"/>
<polygon fill="#000000" stroke="#000000" points="259.3873,-248.4549 269,-244 258.7073,-241.488 259.3873,-248.4549"/>
</g>
<!-- a15 -->
<g id="node16" class="node">
<title>a15</title>
<polygon fill="#cccccc" stroke="transparent" points="11,-241 11,-247 31,-247 31,-241 11,-241"/>
<polygon fill="none" stroke="#000000" points="11,-241 11,-247 31,-247 31,-241 11,-241"/>
<polygon fill="#cccccc" stroke="transparent" points="31,-241 31,-247 51,-247 51,-241 31,-241"/>
<polygon fill="none" stroke="#000000" points="31,-241 31,-247 51,-247 51,-241 31,-241"/>
<polygon fill="none" stroke="#000000" points="11,-220 11,-241 51,-241 51,-220 11,-220"/>
<text text-anchor="start" x="28.5" y="-226.8" font-family="Times,serif" font-size="14.00" fill="#000000">&#45;</text>
</g>
<!-- a0&#45;&gt;a15 -->
<g id="edge51" class="edge">
<title>a0&#45;&gt;a15:p0</title>
<path fill="none" stroke="#000000" d="M24.2108,-287.9727C23.0234,-279.1384 21.7918,-268.0868 21.2648,-257.2477"/>
<polygon fill="#000000" stroke="#000000" points="24.7573,-256.9062 21,-247 17.7596,-257.0871 24.7573,-256.9062"/>
</g>
<!-- a1 -->
<g id="node2" class="node">
<title>a1</title>
<ellipse fill="none" stroke="#000000" cx="105" cy="-306" rx="27" ry="18"/>
<text text-anchor="middle" x="105" y="-302.3" font-family="Times,serif" font-size="14.00" fill="#000000">x4</text>
</g>
<!-- a1&#45;&gt;a2 -->
<g id="edge66" class="edge">
<title>a1&#45;&gt;a2:p1</title>
<path fill="none" stroke="#000000" d="M131.9749,-303.4817C180.0751,-298.3155 277.3654,-284.5743 295.9086,-256.5926"/>
<polygon fill="#000000" stroke="#000000" points="299.2639,-257.5916 299,-247 292.6013,-255.4444 299.2639,-257.5916"/>
</g>
<!-- a1&#45;&gt;a15 -->
<g id="edge52" class="edge">
<title>a1&#45;&gt;a15:p1</title>
<path fill="none" stroke="#000000" d="M94.4947,-289.0582C85.3106,-275.0036 71.7224,-256.0578 60.4762,-247.949"/>
<polygon fill="#000000" stroke="#000000" points="61.5769,-244.616 51,-244 58.8842,-251.0774 61.5769,-244.616"/>
</g>
<!-- a6 -->
<g id="node7" class="node">
<title>a6</title>
<polygon fill="#cccccc" stroke="transparent" points="565,-169 565,-175 585,-175 585,-169 565,-169"/>
<polygon fill="none" stroke="#000000" points="565,-169 565,-175 585,-175 585,-169 565,-169"/>
<polygon fill="#cccccc" stroke="transparent" points="585,-169 585,-175 605,-175 605,-169 585,-169"/>
<polygon fill="none" stroke="#000000" points="585,-169 585,-175 605,-175 605,-169 585,-169"/>
<polygon fill="none" stroke="#000000" points="565,-148 565,-169 605,-169 605,-148 565,-148"/>
<text text-anchor="start" x="580.5" y="-154.8" font-family="Times,serif" font-size="14.00" fill="#000000">+</text>
</g>
<!-- a2&#45;&gt;a6 -->
<g id="edge61" class="edge">
<title>a2&#45;&gt;a6:p0</title>
<path fill="none" stroke="#000000" d="M317.3431,-219.1939C320.2223,-217.9992 323.1398,-216.906 326,-216 421.289,-185.8153 452.5178,-209.5678 548,-180 551.4898,-178.9193 553.5816,-177.253 555.53,-175.7203"/>
<polygon fill="#000000" stroke="#000000" points="556.9722,-178.9142 565,-172 554.4127,-172.3989 556.9722,-178.9142"/>
</g>
<!-- a26 -->
<g id="node27" class="node">
<title>a26</title>
<polygon fill="#cccccc" stroke="transparent" points="417,-169 417,-175 437,-175 437,-169 417,-169"/>
<polygon fill="none" stroke="#000000" points="417,-169 417,-175 437,-175 437,-169 417,-169"/>
<polygon fill="#cccccc" stroke="transparent" points="437,-169 437,-175 457,-175 457,-169 437,-169"/>
<polygon fill="none" stroke="#000000" points="437,-169 437,-175 457,-175 457,-169 437,-169"/>
<polygon fill="none" stroke="#000000" points="417,-148 417,-169 457,-169 457,-148 417,-148"/>
<text text-anchor="start" x="434.5" y="-154.8" font-family="Times,serif" font-size="14.00" fill="#000000">&#45;</text>
</g>
<!-- a2&#45;&gt;a26 -->
<g id="edge31" class="edge">
<title>a2&#45;&gt;a26:p0</title>
<path fill="none" stroke="#000000" d="M311.0222,-215.7333C333.2714,-199.0165 369.5581,-176.3205 406.5567,-172.5431"/>
<polygon fill="#000000" stroke="#000000" points="407.1953,-176.0147 417,-172 406.8317,-169.0241 407.1953,-176.0147"/>
</g>
<!-- a3 -->
<g id="node4" class="node">
<title>a3</title>
<ellipse fill="none" stroke="#000000" cx="428" cy="-378" rx="27" ry="18"/>
<text text-anchor="middle" x="428" y="-374.3" font-family="Times,serif" font-size="14.00" fill="#000000">x2</text>
</g>
<!-- a5 -->
<g id="node6" class="node">
<title>a5</title>
<polygon fill="#cccccc" stroke="transparent" points="473,-313 473,-319 493,-319 493,-313 473,-313"/>
<polygon fill="none" stroke="#000000" points="473,-313 473,-319 493,-319 493,-313 473,-313"/>
<polygon fill="#cccccc" stroke="transparent" points="493,-313 493,-319 513,-319 513,-313 493,-313"/>
<polygon fill="none" stroke="#000000" points="493,-313 493,-319 513,-319 513,-313 493,-313"/>
<polygon fill="none" stroke="#000000" points="473,-292 473,-313 513,-313 513,-292 473,-292"/>
<text text-anchor="start" x="488.5" y="-298.8" font-family="Times,serif" font-size="14.00" fill="#000000">+</text>
</g>
<!-- a3&#45;&gt;a5 -->
<g id="edge63" class="edge">
<title>a3&#45;&gt;a5:p0</title>
<path fill="none" stroke="#000000" d="M436.5081,-360.7295C443.7232,-346.9706 454.3954,-328.6897 463.9658,-320.4092"/>
<polygon fill="#000000" stroke="#000000" points="465.5483,-323.5315 473,-316 462.4781,-317.2407 465.5483,-323.5315"/>
</g>
<!-- a17 -->
<g id="node18" class="node">
<title>a17</title>
<polygon fill="#cccccc" stroke="transparent" points="399,-313 399,-319 419,-319 419,-313 399,-313"/>
<polygon fill="none" stroke="#000000" points="399,-313 399,-319 419,-319 419,-313 399,-313"/>
<polygon fill="#cccccc" stroke="transparent" points="419,-313 419,-319 439,-319 439,-313 419,-313"/>
<polygon fill="none" stroke="#000000" points="419,-313 419,-319 439,-319 439,-313 419,-313"/>
<polygon fill="none" stroke="#000000" points="399,-292 399,-313 439,-313 439,-292 399,-292"/>
<text text-anchor="start" x="416.5" y="-298.8" font-family="Times,serif" font-size="14.00" fill="#000000">&#45;</text>
</g>
<!-- a3&#45;&gt;a17 -->
<g id="edge49" class="edge">
<title>a3&#45;&gt;a17:p0</title>
<path fill="none" stroke="#000000" d="M419.3895,-360.9092C415.5013,-351.9857 411.4126,-340.5502 409.7595,-329.0553"/>
<polygon fill="#000000" stroke="#000000" points="413.2433,-328.708 409,-319 406.2632,-329.2352 413.2433,-328.708"/>
</g>
<!-- a4 -->
<g id="node5" class="node">
<title>a4</title>
<ellipse fill="none" stroke="#000000" cx="500" cy="-378" rx="27" ry="18"/>
<text text-anchor="middle" x="500" y="-374.3" font-family="Times,serif" font-size="14.00" fill="#000000">x6</text>
</g>
<!-- a4&#45;&gt;a5 -->
<g id="edge64" class="edge">
<title>a4&#45;&gt;a5:p1</title>
<path fill="none" stroke="#000000" d="M501.3946,-359.9366C501.9883,-351.0913 502.6041,-340.0357 502.8676,-329.2183"/>
<polygon fill="#000000" stroke="#000000" points="506.37,-329.0445 503,-319 499.3706,-328.9538 506.37,-329.0445"/>
</g>
<!-- a4&#45;&gt;a17 -->
<g id="edge50" class="edge">
<title>a4&#45;&gt;a17:p1</title>
<path fill="none" stroke="#000000" d="M488.3185,-361.7102C477.541,-347.359 461.3357,-327.5323 448.6413,-319.5448"/>
<polygon fill="#000000" stroke="#000000" points="449.5935,-316.1659 439,-316 447.1779,-322.7359 449.5935,-316.1659"/>
</g>
<!-- a5&#45;&gt;a6 -->
<g id="edge62" class="edge">
<title>a5&#45;&gt;a6:p1</title>
<path fill="none" stroke="#000000" d="M521.0257,-290.9718C546.2519,-277.1906 579.9714,-258.0355 584,-252 601.1679,-226.2797 596.4234,-212.6225 595.2316,-185.2831"/>
<polygon fill="#000000" stroke="#000000" points="598.7244,-184.9186 595,-175 591.7262,-185.0763 598.7244,-184.9186"/>
</g>
<!-- a5&#45;&gt;a26 -->
<g id="edge32" class="edge">
<title>a5&#45;&gt;a26:p1</title>
<path fill="none" stroke="#000000" d="M491.9258,-287.9282C489.6308,-256.4954 483.0101,-193.4718 466.1343,-176.368"/>
<polygon fill="#000000" stroke="#000000" points="467.5315,-173.1566 457,-172 464.5116,-179.4717 467.5315,-173.1566"/>
</g>
<!-- a14 -->
<g id="node15" class="node">
<title>a14</title>
<polygon fill="#cccccc" stroke="transparent" points="555,-97 555,-103 575,-103 575,-97 555,-97"/>
<polygon fill="none" stroke="#000000" points="555,-97 555,-103 575,-103 575,-97 555,-97"/>
<polygon fill="#cccccc" stroke="transparent" points="575,-97 575,-103 595,-103 595,-97 575,-97"/>
<polygon fill="none" stroke="#000000" points="575,-97 575,-103 595,-103 595,-97 575,-97"/>
<polygon fill="none" stroke="#000000" points="555,-76 555,-97 595,-97 595,-76 555,-76"/>
<text text-anchor="start" x="570.5" y="-82.8" font-family="Times,serif" font-size="14.00" fill="#000000">+</text>
</g>
<!-- a6&#45;&gt;a14 -->
<g id="edge53" class="edge">
<title>a6&#45;&gt;a14:p0</title>
<path fill="none" stroke="#000000" d="M575.4686,-143.931C571.5247,-135.1919 567.4834,-124.2102 565.8057,-113.1353"/>
<polygon fill="#000000" stroke="#000000" points="569.2815,-112.6912 565,-103 562.3035,-113.2459 569.2815,-112.6912"/>
</g>
<!-- a36 -->
<g id="node37" class="node">
<title>a36</title>
<polygon fill="#cccccc" stroke="transparent" points="629,-97 629,-103 649,-103 649,-97 629,-97"/>
<polygon fill="none" stroke="#000000" points="629,-97 629,-103 649,-103 649,-97 629,-97"/>
<polygon fill="#cccccc" stroke="transparent" points="649,-97 649,-103 669,-103 669,-97 649,-97"/>
<polygon fill="none" stroke="#000000" points="649,-97 649,-103 669,-103 669,-97 649,-97"/>
<polygon fill="none" stroke="#000000" points="629,-76 629,-97 669,-97 669,-76 629,-76"/>
<text text-anchor="start" x="646.5" y="-82.8" font-family="Times,serif" font-size="14.00" fill="#000000">&#45;</text>
</g>
<!-- a6&#45;&gt;a36 -->
<g id="edge15" class="edge">
<title>a6&#45;&gt;a36:p0</title>
<path fill="none" stroke="#000000" d="M593.77,-143.7333C600.7415,-130.1598 610.809,-112.6443 619.9615,-104.5151"/>
<polygon fill="#000000" stroke="#000000" points="621.6182,-107.6 629,-100 618.49,-101.3378 621.6182,-107.6"/>
</g>
<!-- a7 -->
<g id="node8" class="node">
<title>a7</title>
<ellipse fill="none" stroke="#000000" cx="572" cy="-378" rx="27" ry="18"/>
<text text-anchor="middle" x="572" y="-374.3" font-family="Times,serif" font-size="14.00" fill="#000000">x1</text>
</g>
<!-- a9 -->
<g id="node10" class="node">
<title>a9</title>
<polygon fill="#cccccc" stroke="transparent" points="621,-313 621,-319 641,-319 641,-313 621,-313"/>
<polygon fill="none" stroke="#000000" points="621,-313 621,-319 641,-319 641,-313 621,-313"/>
<polygon fill="#cccccc" stroke="transparent" points="641,-313 641,-319 661,-319 661,-313 641,-313"/>
<polygon fill="none" stroke="#000000" points="641,-313 641,-319 661,-319 661,-313 641,-313"/>
<polygon fill="none" stroke="#000000" points="621,-292 621,-313 661,-313 661,-292 621,-292"/>
<text text-anchor="start" x="636.5" y="-298.8" font-family="Times,serif" font-size="14.00" fill="#000000">+</text>
</g>
<!-- a7&#45;&gt;a9 -->
<g id="edge59" class="edge">
<title>a7&#45;&gt;a9:p0</title>
<path fill="none" stroke="#000000" d="M581.3041,-361.0582C589.3902,-347.147 601.399,-328.444 611.757,-320.2006"/>
<polygon fill="#000000" stroke="#000000" points="613.3442,-323.3239 621,-316 610.4479,-316.9511 613.3442,-323.3239"/>
</g>
<!-- a20 -->
<g id="node21" class="node">
<title>a20</title>
<polygon fill="#cccccc" stroke="transparent" points="547,-313 547,-319 567,-319 567,-313 547,-313"/>
<polygon fill="none" stroke="#000000" points="547,-313 547,-319 567,-319 567,-313 547,-313"/>
<polygon fill="#cccccc" stroke="transparent" points="567,-313 567,-319 587,-319 587,-313 567,-313"/>
<polygon fill="none" stroke="#000000" points="567,-313 567,-319 587,-319 587,-313 567,-313"/>
<polygon fill="none" stroke="#000000" points="547,-292 547,-313 587,-313 587,-292 547,-292"/>
<text text-anchor="start" x="564.5" y="-298.8" font-family="Times,serif" font-size="14.00" fill="#000000">&#45;</text>
</g>
<!-- a7&#45;&gt;a20 -->
<g id="edge43" class="edge">
<title>a7&#45;&gt;a20:p0</title>
<path fill="none" stroke="#000000" d="M565.1146,-360.4801C562.0956,-351.6104 558.9428,-340.3712 557.6308,-329.1866"/>
<polygon fill="#000000" stroke="#000000" points="561.1114,-328.7645 557,-319 554.1248,-329.1972 561.1114,-328.7645"/>
</g>
<!-- a8 -->
<g id="node9" class="node">
<title>a8</title>
<ellipse fill="none" stroke="#000000" cx="644" cy="-378" rx="27" ry="18"/>
<text text-anchor="middle" x="644" y="-374.3" font-family="Times,serif" font-size="14.00" fill="#000000">x5</text>
</g>
<!-- a8&#45;&gt;a9 -->
<g id="edge60" class="edge">
<title>a8&#45;&gt;a9:p1</title>
<path fill="none" stroke="#000000" d="M647.2541,-359.9901C648.6394,-351.161 650.0763,-340.1114 650.691,-329.2618"/>
<polygon fill="#000000" stroke="#000000" points="654.1974,-329.1008 651,-319 647.2005,-328.8901 654.1974,-329.1008"/>
</g>
<!-- a8&#45;&gt;a20 -->
<g id="edge44" class="edge">
<title>a8&#45;&gt;a20:p1</title>
<path fill="none" stroke="#000000" d="M633.0059,-361.3851C623.1312,-347.1808 608.4014,-327.7992 596.5174,-319.746"/>
<polygon fill="#000000" stroke="#000000" points="597.5871,-316.4057 587,-316 595.0233,-322.9193 597.5871,-316.4057"/>
</g>
<!-- a13 -->
<g id="node14" class="node">
<title>a13</title>
<polygon fill="#cccccc" stroke="transparent" points="639,-169 639,-175 659,-175 659,-169 639,-169"/>
<polygon fill="none" stroke="#000000" points="639,-169 639,-175 659,-175 659,-169 639,-169"/>
<polygon fill="#cccccc" stroke="transparent" points="659,-169 659,-175 679,-175 679,-169 659,-169"/>
<polygon fill="none" stroke="#000000" points="659,-169 659,-175 679,-175 679,-169 659,-169"/>
<polygon fill="none" stroke="#000000" points="639,-148 639,-169 679,-169 679,-148 639,-148"/>
<text text-anchor="start" x="654.5" y="-154.8" font-family="Times,serif" font-size="14.00" fill="#000000">+</text>
</g>
<!-- a9&#45;&gt;a13 -->
<g id="edge55" class="edge">
<title>a9&#45;&gt;a13:p0</title>
<path fill="none" stroke="#000000" d="M642.8153,-287.796C644.982,-264.5887 648.3824,-222.924 648.9257,-185.0475"/>
<polygon fill="#000000" stroke="#000000" points="652.4259,-185.0256 649,-175 645.4261,-184.9738 652.4259,-185.0256"/>
</g>
<!-- a28 -->
<g id="node29" class="node">
<title>a28</title>
<polygon fill="#cccccc" stroke="transparent" points="677,-241 677,-247 697,-247 697,-241 677,-241"/>
<polygon fill="none" stroke="#000000" points="677,-241 677,-247 697,-247 697,-241 677,-241"/>
<polygon fill="#cccccc" stroke="transparent" points="697,-241 697,-247 717,-247 717,-241 697,-241"/>
<polygon fill="none" stroke="#000000" points="697,-241 697,-247 717,-247 717,-241 697,-241"/>
<polygon fill="none" stroke="#000000" points="677,-220 677,-241 717,-241 717,-220 677,-220"/>
<text text-anchor="start" x="694.5" y="-226.8" font-family="Times,serif" font-size="14.00" fill="#000000">&#45;</text>
</g>
<!-- a9&#45;&gt;a28 -->
<g id="edge29" class="edge">
<title>a9&#45;&gt;a28:p0</title>
<path fill="none" stroke="#000000" d="M643.6975,-287.7333C646.8609,-272.731 653.508,-252.9132 667.0625,-246.2755"/>
<polygon fill="#000000" stroke="#000000" points="668.0335,-249.6438 677,-244 666.471,-242.8204 668.0335,-249.6438"/>
</g>
<!-- a10 -->
<g id="node11" class="node">
<title>a10</title>
<ellipse fill="none" stroke="#000000" cx="425" cy="-450" rx="27" ry="18"/>
<text text-anchor="middle" x="425" y="-446.3" font-family="Times,serif" font-size="14.00" fill="#000000">x3</text>
</g>
<!-- a12 -->
<g id="node13" class="node">
<title>a12</title>
<polygon fill="#cccccc" stroke="transparent" points="701,-313 701,-319 721,-319 721,-313 701,-313"/>
<polygon fill="none" stroke="#000000" points="701,-313 701,-319 721,-319 721,-313 701,-313"/>
<polygon fill="#cccccc" stroke="transparent" points="721,-313 721,-319 741,-319 741,-313 721,-313"/>
<polygon fill="none" stroke="#000000" points="721,-313 721,-319 741,-319 741,-313 721,-313"/>
<polygon fill="none" stroke="#000000" points="701,-292 701,-313 741,-313 741,-292 701,-292"/>
<text text-anchor="start" x="716.5" y="-298.8" font-family="Times,serif" font-size="14.00" fill="#000000">+</text>
</g>
<!-- a10&#45;&gt;a12 -->
<g id="edge57" class="edge">
<title>a10&#45;&gt;a12:p0</title>
<path fill="none" stroke="#000000" d="M452.167,-447.4666C510.5561,-441.5222 645.5146,-424.9505 680,-396 705.4957,-374.5963 710.2206,-359.1623 710.9003,-329.2474"/>
<polygon fill="#000000" stroke="#000000" points="714.4024,-329.0336 711,-319 707.4027,-328.9654 714.4024,-329.0336"/>
</g>
<!-- a21 -->
<g id="node22" class="node">
<title>a21</title>
<polygon fill="#cccccc" stroke="transparent" points="335,-385 335,-391 355,-391 355,-385 335,-385"/>
<polygon fill="none" stroke="#000000" points="335,-385 335,-391 355,-391 355,-385 335,-385"/>
<polygon fill="#cccccc" stroke="transparent" points="355,-385 355,-391 375,-391 375,-385 355,-385"/>
<polygon fill="none" stroke="#000000" points="355,-385 355,-391 375,-391 375,-385 355,-385"/>
<polygon fill="none" stroke="#000000" points="335,-364 335,-385 375,-385 375,-364 335,-364"/>
<text text-anchor="start" x="352.5" y="-370.8" font-family="Times,serif" font-size="14.00" fill="#000000">&#45;</text>
</g>
<!-- a10&#45;&gt;a21 -->
<g id="edge41" class="edge">
<title>a10&#45;&gt;a21:p0</title>
<path fill="none" stroke="#000000" d="M399.6875,-442.9808C379.2712,-435.8161 352.9268,-422.6425 346.4742,-401.114"/>
<polygon fill="#000000" stroke="#000000" points="349.9058,-400.3906 345,-391 342.979,-401.4003 349.9058,-400.3906"/>
</g>
<!-- a11 -->
<g id="node12" class="node">
<title>a11</title>
<ellipse fill="none" stroke="#000000" cx="657" cy="-450" rx="27" ry="18"/>
<text text-anchor="middle" x="657" y="-446.3" font-family="Times,serif" font-size="14.00" fill="#000000">x7</text>
</g>
<!-- a11&#45;&gt;a12 -->
<g id="edge58" class="edge">
<title>a11&#45;&gt;a12:p1</title>
<path fill="none" stroke="#000000" d="M675.5889,-436.7007C688.0144,-426.8406 703.7272,-412.3234 713,-396 728.5962,-368.5452 730.6974,-356.6382 730.9633,-329.0154"/>
<polygon fill="#000000" stroke="#000000" points="734.4633,-329.0128 731,-319 727.4633,-328.9871 734.4633,-329.0128"/>
</g>
<!-- a11&#45;&gt;a21 -->
<g id="edge42" class="edge">
<title>a11&#45;&gt;a21:p1</title>
<path fill="none" stroke="#000000" d="M630.1238,-446.686C581.6305,-440.234 476.6688,-424.0989 392,-396 388.5327,-394.8493 386.4437,-393.1742 384.4913,-391.6538"/>
<polygon fill="#000000" stroke="#000000" points="385.5898,-388.3264 375,-388 383.0749,-394.859 385.5898,-388.3264"/>
</g>
<!-- a12&#45;&gt;a13 -->
<g id="edge56" class="edge">
<title>a12&#45;&gt;a13:p1</title>
<path fill="none" stroke="#000000" d="M729.4523,-287.8317C736.9302,-268.9687 745.0789,-239.051 734,-216 722.0285,-191.0918 712.7266,-175.8704 689.1728,-172.6449"/>
<polygon fill="#000000" stroke="#000000" points="689.2014,-169.1398 679,-172 688.7585,-176.1258 689.2014,-169.1398"/>
</g>
<!-- a12&#45;&gt;a28 -->
<g id="edge30" class="edge">
<title>a12&#45;&gt;a28:p1</title>
<path fill="none" stroke="#000000" d="M714.4099,-287.9244C711.6298,-279.0853 708.7632,-267.9994 707.5722,-257.0046"/>
<polygon fill="#000000" stroke="#000000" points="711.0654,-256.7838 707,-247 704.0768,-257.1836 711.0654,-256.7838"/>
</g>
<!-- a13&#45;&gt;a14 -->
<g id="edge54" class="edge">
<title>a13&#45;&gt;a14:p1</title>
<path fill="none" stroke="#000000" d="M645.059,-143.7333C633.5935,-129.4454 617.2318,-110.7897 604.5733,-103.3115"/>
<polygon fill="#000000" stroke="#000000" points="605.5948,-99.9614 595,-100 603.3064,-106.5768 605.5948,-99.9614"/>
</g>
<!-- a13&#45;&gt;a36 -->
<g id="edge16" class="edge">
<title>a13&#45;&gt;a36:p1</title>
<path fill="none" stroke="#000000" d="M659,-143.9245C659,-135.0755 659,-124.0186 659,-113.2085"/>
<polygon fill="#000000" stroke="#000000" points="662.5001,-113 659,-103 655.5001,-113 662.5001,-113"/>
</g>
<!-- a40 -->
<g id="node41" class="node">
<title>a40</title>
<polygon fill="#cccccc" stroke="transparent" points="310,-25 310,-31 330,-31 330,-25 310,-25"/>
<polygon fill="none" stroke="#000000" points="310,-25 310,-31 330,-31 330,-25 310,-25"/>
<polygon fill="#cccccc" stroke="transparent" points="330,-25 330,-31 350,-31 350,-25 330,-25"/>
<polygon fill="none" stroke="#000000" points="330,-25 330,-31 350,-31 350,-25 330,-25"/>
<polygon fill="#cccccc" stroke="transparent" points="350,-25 350,-31 370,-31 370,-25 350,-25"/>
<polygon fill="none" stroke="#000000" points="350,-25 350,-31 370,-31 370,-25 350,-25"/>
<polygon fill="#cccccc" stroke="transparent" points="370,-25 370,-31 390,-31 390,-25 370,-25"/>
<polygon fill="none" stroke="#000000" points="370,-25 370,-31 390,-31 390,-25 370,-25"/>
<polygon fill="#cccccc" stroke="transparent" points="390,-25 390,-31 410,-31 410,-25 390,-25"/>
<polygon fill="none" stroke="#000000" points="390,-25 390,-31 410,-31 410,-25 390,-25"/>
<polygon fill="#cccccc" stroke="transparent" points="410,-25 410,-31 430,-31 430,-25 410,-25"/>
<polygon fill="none" stroke="#000000" points="410,-25 410,-31 430,-31 430,-25 410,-25"/>
<polygon fill="#cccccc" stroke="transparent" points="430,-25 430,-31 450,-31 450,-25 430,-25"/>
<polygon fill="none" stroke="#000000" points="430,-25 430,-31 450,-31 450,-25 430,-25"/>
<polygon fill="#cccccc" stroke="transparent" points="450,-25 450,-31 470,-31 470,-25 450,-25"/>
<polygon fill="none" stroke="#000000" points="450,-25 450,-31 470,-31 470,-25 450,-25"/>
<polygon fill="none" stroke="#000000" points="310,-4 310,-25 470,-25 470,-4 310,-4"/>
<text text-anchor="start" x="372.5" y="-10.8" font-family="Times,serif" font-size="14.00" fill="#000000">output</text>
</g>
<!-- a14&#45;&gt;a40 -->
<g id="edge1" class="edge">
<title>a14&#45;&gt;a40:p0</title>
<path fill="none" stroke="#000000" d="M546.6326,-75.2691C543.7583,-74.0592 540.8486,-72.9419 538,-72 494.6719,-57.6733 344.727,-76.9817 322.7083,-40.8141"/>
<polygon fill="#000000" stroke="#000000" points="326.0341,-39.7086 320,-31 319.2863,-41.5708 326.0341,-39.7086"/>
</g>
<!-- a19 -->
<g id="node20" class="node">
<title>a19</title>
<polygon fill="#cccccc" stroke="transparent" points="131,-169 131,-175 151,-175 151,-169 131,-169"/>
<polygon fill="none" stroke="#000000" points="131,-169 131,-175 151,-175 151,-169 131,-169"/>
<polygon fill="#cccccc" stroke="transparent" points="151,-169 151,-175 171,-175 171,-169 151,-169"/>
<polygon fill="none" stroke="#000000" points="151,-169 151,-175 171,-175 171,-169 151,-169"/>
<polygon fill="none" stroke="#000000" points="131,-148 131,-169 171,-169 171,-148 131,-148"/>
<text text-anchor="start" x="146.5" y="-154.8" font-family="Times,serif" font-size="14.00" fill="#000000">+</text>
</g>
<!-- a15&#45;&gt;a19 -->
<g id="edge45" class="edge">
<title>a15&#45;&gt;a19:p0</title>
<path fill="none" stroke="#000000" d="M58.5832,-215.9004C79.6759,-202.1753 107.5013,-184.3439 121.8677,-176.286"/>
<polygon fill="#000000" stroke="#000000" points="123.4344,-179.4171 131,-172 120.4604,-173.0802 123.4344,-179.4171"/>
</g>
<!-- a31 -->
<g id="node32" class="node">
<title>a31</title>
<polygon fill="#cccccc" stroke="transparent" points="57,-169 57,-175 77,-175 77,-169 57,-169"/>
<polygon fill="none" stroke="#000000" points="57,-169 57,-175 77,-175 77,-169 57,-169"/>
<polygon fill="#cccccc" stroke="transparent" points="77,-169 77,-175 97,-175 97,-169 77,-169"/>
<polygon fill="none" stroke="#000000" points="77,-169 77,-175 97,-175 97,-169 77,-169"/>
<polygon fill="none" stroke="#000000" points="57,-148 57,-169 97,-169 97,-148 57,-148"/>
<text text-anchor="start" x="74.5" y="-154.8" font-family="Times,serif" font-size="14.00" fill="#000000">&#45;</text>
</g>
<!-- a15&#45;&gt;a31 -->
<g id="edge23" class="edge">
<title>a15&#45;&gt;a31:p0</title>
<path fill="none" stroke="#000000" d="M31.2436,-215.7333C32.3119,-201.0168 35.9438,-181.6664 47.2958,-174.669"/>
<polygon fill="#000000" stroke="#000000" points="48.2862,-178.0267 57,-172 46.4298,-171.2773 48.2862,-178.0267"/>
</g>
<!-- a16 -->
<g id="node17" class="node">
<title>a16</title>
<ellipse fill="none" stroke="#000000" cx="233" cy="-378" rx="27" ry="18"/>
<text text-anchor="middle" x="233" y="-374.3" font-family="Times,serif" font-size="14.00" fill="#000000">w1</text>
</g>
<!-- a18 -->
<g id="node19" class="node">
<title>a18</title>
<polygon fill="#cccccc" stroke="transparent" points="85,-241 85,-247 105,-247 105,-241 85,-241"/>
<polygon fill="none" stroke="#000000" points="85,-241 85,-247 105,-247 105,-241 85,-241"/>
<polygon fill="#cccccc" stroke="transparent" points="105,-241 105,-247 125,-247 125,-241 105,-241"/>
<polygon fill="none" stroke="#000000" points="105,-241 105,-247 125,-247 125,-241 105,-241"/>
<polygon fill="none" stroke="#000000" points="85,-220 85,-241 125,-241 125,-220 85,-220"/>
<text text-anchor="start" x="100.5" y="-226.8" font-family="Times,serif" font-size="14.00" fill="#000000">×</text>
</g>
<!-- a16&#45;&gt;a18 -->
<g id="edge47" class="edge">
<title>a16&#45;&gt;a18:p0</title>
<path fill="none" stroke="#000000" d="M217.9081,-362.8114C199.8526,-344.7399 168.5986,-313.7727 141,-288 123.9551,-272.0828 102.5825,-273.4027 96.6131,-257.2335"/>
<polygon fill="#000000" stroke="#000000" points="100.0144,-256.3331 95,-247 93.0998,-257.423 100.0144,-256.3331"/>
</g>
<!-- a22 -->
<g id="node23" class="node">
<title>a22</title>
<polygon fill="#cccccc" stroke="transparent" points="325,-313 325,-319 345,-319 345,-313 325,-313"/>
<polygon fill="none" stroke="#000000" points="325,-313 325,-319 345,-319 345,-313 325,-313"/>
<polygon fill="#cccccc" stroke="transparent" points="345,-313 345,-319 365,-319 365,-313 345,-313"/>
<polygon fill="none" stroke="#000000" points="345,-313 345,-319 365,-319 365,-313 345,-313"/>
<polygon fill="none" stroke="#000000" points="325,-292 325,-313 365,-313 365,-292 325,-292"/>
<text text-anchor="start" x="340.5" y="-298.8" font-family="Times,serif" font-size="14.00" fill="#000000">×</text>
</g>
<!-- a16&#45;&gt;a22 -->
<g id="edge39" class="edge">
<title>a16&#45;&gt;a22:p0</title>
<path fill="none" stroke="#000000" d="M245.7993,-362.0335C260.3628,-345.6008 285.8919,-321.7319 314.69,-316.8798"/>
<polygon fill="#000000" stroke="#000000" points="315.3338,-320.3377 325,-316 314.7386,-313.363 315.3338,-320.3377"/>
</g>
<!-- a24 -->
<g id="node25" class="node">
<title>a24</title>
<polygon fill="#cccccc" stroke="transparent" points="315,-169 315,-175 335,-175 335,-169 315,-169"/>
<polygon fill="none" stroke="#000000" points="315,-169 315,-175 335,-175 335,-169 315,-169"/>
<polygon fill="#cccccc" stroke="transparent" points="335,-169 335,-175 355,-175 355,-169 335,-169"/>
<polygon fill="none" stroke="#000000" points="335,-169 335,-175 355,-175 355,-169 335,-169"/>
<polygon fill="none" stroke="#000000" points="315,-148 315,-169 355,-169 355,-148 315,-148"/>
<text text-anchor="start" x="330.5" y="-154.8" font-family="Times,serif" font-size="14.00" fill="#000000">×</text>
</g>
<!-- a16&#45;&gt;a24 -->
<g id="edge35" class="edge">
<title>a16&#45;&gt;a24:p0</title>
<path fill="none" stroke="#000000" d="M230.5786,-359.9579C227.2659,-328.3432 224.5316,-261.9341 252,-216 267.6796,-189.7797 278.3905,-175.261 304.9217,-172.4901"/>
<polygon fill="#000000" stroke="#000000" points="305.1818,-175.9817 315,-172 304.8418,-168.9899 305.1818,-175.9817"/>
</g>
<!-- a17&#45;&gt;a18 -->
<g id="edge48" class="edge">
<title>a17&#45;&gt;a18:p1</title>
<path fill="none" stroke="#000000" d="M390.6681,-291.1582C387.7867,-289.9708 384.8655,-288.889 382,-288 278.984,-256.0392 245.2205,-283.2938 142,-252 138.5039,-250.9401 136.4112,-249.2763 134.464,-247.74"/>
<polygon fill="#000000" stroke="#000000" points="135.5865,-244.4202 125,-244 133.0138,-250.9303 135.5865,-244.4202"/>
</g>
<!-- a18&#45;&gt;a19 -->
<g id="edge46" class="edge">
<title>a18&#45;&gt;a19:p1</title>
<path fill="none" stroke="#000000" d="M133,-218.0575C144.2656,-209.8249 155.5313,-198.666 159.5021,-185.2022"/>
<polygon fill="#000000" stroke="#000000" points="163.0102,-185.4024 161,-175 156.0844,-184.3855 163.0102,-185.4024"/>
</g>
<!-- a18&#45;&gt;a31 -->
<g id="edge24" class="edge">
<title>a18&#45;&gt;a31:p1</title>
<path fill="none" stroke="#000000" d="M96.4217,-215.8321C92.8722,-207.0646 89.2351,-196.0736 87.7251,-185.059"/>
<polygon fill="#000000" stroke="#000000" points="91.21,-184.7224 87,-175 84.2281,-185.2258 91.21,-184.7224"/>
</g>
<!-- a25 -->
<g id="node26" class="node">
<title>a25</title>
<polygon fill="#cccccc" stroke="transparent" points="259,-97 259,-103 279,-103 279,-97 259,-97"/>
<polygon fill="none" stroke="#000000" points="259,-97 259,-103 279,-103 279,-97 259,-97"/>
<polygon fill="#cccccc" stroke="transparent" points="279,-97 279,-103 299,-103 299,-97 279,-97"/>
<polygon fill="none" stroke="#000000" points="279,-97 279,-103 299,-103 299,-97 279,-97"/>
<polygon fill="none" stroke="#000000" points="259,-76 259,-97 299,-97 299,-76 259,-76"/>
<text text-anchor="start" x="274.5" y="-82.8" font-family="Times,serif" font-size="14.00" fill="#000000">+</text>
</g>
<!-- a19&#45;&gt;a25 -->
<g id="edge33" class="edge">
<title>a19&#45;&gt;a25:p0</title>
<path fill="none" stroke="#000000" d="M179.1744,-144.8941C202.2578,-130.987 233.5981,-112.3761 249.3946,-104.1771"/>
<polygon fill="#000000" stroke="#000000" points="251.2254,-107.1976 259,-100 248.4338,-100.7784 251.2254,-107.1976"/>
</g>
<!-- a37 -->
<g id="node38" class="node">
<title>a37</title>
<polygon fill="#cccccc" stroke="transparent" points="333,-97 333,-103 353,-103 353,-97 333,-97"/>
<polygon fill="none" stroke="#000000" points="333,-97 333,-103 353,-103 353,-97 333,-97"/>
<polygon fill="#cccccc" stroke="transparent" points="353,-97 353,-103 373,-103 373,-97 353,-97"/>
<polygon fill="none" stroke="#000000" points="353,-97 353,-103 373,-103 373,-97 353,-97"/>
<polygon fill="none" stroke="#000000" points="333,-76 333,-97 373,-97 373,-76 333,-76"/>
<text text-anchor="start" x="350.5" y="-82.8" font-family="Times,serif" font-size="14.00" fill="#000000">&#45;</text>
</g>
<!-- a19&#45;&gt;a37 -->
<g id="edge13" class="edge">
<title>a19&#45;&gt;a37:p0</title>
<path fill="none" stroke="#000000" d="M179.0526,-147.7114C182.0413,-146.3825 185.0622,-145.1174 188,-144 243.2352,-122.99 260.6301,-128.6523 316,-108 319.4229,-106.7233 321.5064,-105.0325 323.4665,-103.5342"/>
<polygon fill="#000000" stroke="#000000" points="324.8402,-106.7578 333,-100 322.4069,-100.1943 324.8402,-106.7578"/>
</g>
<!-- a23 -->
<g id="node24" class="node">
<title>a23</title>
<polygon fill="#cccccc" stroke="transparent" points="417,-241 417,-247 437,-247 437,-241 417,-241"/>
<polygon fill="none" stroke="#000000" points="417,-241 417,-247 437,-247 437,-241 417,-241"/>
<polygon fill="#cccccc" stroke="transparent" points="437,-241 437,-247 457,-247 457,-241 437,-241"/>
<polygon fill="none" stroke="#000000" points="437,-241 437,-247 457,-247 457,-241 437,-241"/>
<polygon fill="none" stroke="#000000" points="417,-220 417,-241 457,-241 457,-220 417,-220"/>
<text text-anchor="start" x="432.5" y="-226.8" font-family="Times,serif" font-size="14.00" fill="#000000">+</text>
</g>
<!-- a20&#45;&gt;a23 -->
<g id="edge37" class="edge">
<title>a20&#45;&gt;a23:p0</title>
<path fill="none" stroke="#000000" d="M538.8189,-292.0244C535.8552,-290.6345 532.8753,-289.2696 530,-288 488.4484,-269.6529 435.9727,-292.1626 428.0269,-257.1897"/>
<polygon fill="#000000" stroke="#000000" points="431.4852,-256.5986 427,-247 424.5205,-257.3006 431.4852,-256.5986"/>
</g>
<!-- a33 -->
<g id="node34" class="node">
<title>a33</title>
<polygon fill="#cccccc" stroke="transparent" points="343,-241 343,-247 363,-247 363,-241 343,-241"/>
<polygon fill="none" stroke="#000000" points="343,-241 343,-247 363,-247 363,-241 343,-241"/>
<polygon fill="#cccccc" stroke="transparent" points="363,-241 363,-247 383,-247 383,-241 363,-241"/>
<polygon fill="none" stroke="#000000" points="363,-241 363,-247 383,-247 383,-241 363,-241"/>
<polygon fill="none" stroke="#000000" points="343,-220 343,-241 383,-241 383,-220 343,-220"/>
<text text-anchor="start" x="360.5" y="-226.8" font-family="Times,serif" font-size="14.00" fill="#000000">&#45;</text>
</g>
<!-- a20&#45;&gt;a33 -->
<g id="edge21" class="edge">
<title>a20&#45;&gt;a33:p0</title>
<path fill="none" stroke="#000000" d="M538.9993,-291.5702C536.0004,-290.2688 532.963,-289.0488 530,-288 495.3587,-275.7383 377.1514,-285.2788 356.1906,-256.6511"/>
<polygon fill="#000000" stroke="#000000" points="359.462,-255.396 353,-247 352.8158,-257.5932 359.462,-255.396"/>
</g>
<!-- a21&#45;&gt;a22 -->
<g id="edge40" class="edge">
<title>a21&#45;&gt;a22:p1</title>
<path fill="none" stroke="#000000" d="M355,-359.9245C355,-351.0755 355,-340.0186 355,-329.2085"/>
<polygon fill="#000000" stroke="#000000" points="358.5001,-329 355,-319 351.5001,-329 358.5001,-329"/>
</g>
<!-- a22&#45;&gt;a23 -->
<g id="edge38" class="edge">
<title>a22&#45;&gt;a23:p1</title>
<path fill="none" stroke="#000000" d="M373.142,-291.2575C395.5496,-279.3544 425.38,-263.1005 439.272,-253.7596"/>
<polygon fill="#000000" stroke="#000000" points="441.7773,-256.2182 447,-247 437.1687,-250.9493 441.7773,-256.2182"/>
</g>
<!-- a22&#45;&gt;a33 -->
<g id="edge22" class="edge">
<title>a22&#45;&gt;a33:p1</title>
<path fill="none" stroke="#000000" d="M358.6719,-287.9032C364.1692,-279.2565 369.734,-268.3339 371.9734,-257.0088"/>
<polygon fill="#000000" stroke="#000000" points="375.4613,-257.305 373,-247 368.4978,-256.5907 375.4613,-257.305"/>
</g>
<!-- a23&#45;&gt;a24 -->
<g id="edge36" class="edge">
<title>a23&#45;&gt;a24:p1</title>
<path fill="none" stroke="#000000" d="M424.1814,-215.7333C411.3886,-199.588 390.0776,-177.8654 365.1202,-172.9958"/>
<polygon fill="#000000" stroke="#000000" points="365.2947,-169.4962 355,-172 364.6092,-176.4625 365.2947,-169.4962"/>
</g>
<!-- a24&#45;&gt;a25 -->
<g id="edge34" class="edge">
<title>a24&#45;&gt;a25:p1</title>
<path fill="none" stroke="#000000" d="M328.348,-143.7333C323.1459,-130.5885 315.5332,-113.7466 307.8729,-105.3129"/>
<polygon fill="#000000" stroke="#000000" points="309.3776,-102.1344 299,-100 305.7815,-108.1401 309.3776,-102.1344"/>
</g>
<!-- a24&#45;&gt;a37 -->
<g id="edge14" class="edge">
<title>a24&#45;&gt;a37:p1</title>
<path fill="none" stroke="#000000" d="M348.6719,-143.9032C354.1692,-135.2565 359.734,-124.3339 361.9734,-113.0088"/>
<polygon fill="#000000" stroke="#000000" points="365.4613,-113.305 363,-103 358.4978,-112.5907 365.4613,-113.305"/>
</g>
<!-- a25&#45;&gt;a40 -->
<g id="edge2" class="edge">
<title>a25&#45;&gt;a40:p1</title>
<path fill="none" stroke="#000000" d="M307.0005,-76.2481C320.155,-68.0136 333.9337,-56.2251 338.4607,-41.2752"/>
<polygon fill="#000000" stroke="#000000" points="341.9797,-41.4082 340,-31 335.057,-40.3711 341.9797,-41.4082"/>
</g>
<!-- a30 -->
<g id="node31" class="node">
<title>a30</title>
<polygon fill="#cccccc" stroke="transparent" points="407,-97 407,-103 427,-103 427,-97 407,-97"/>
<polygon fill="none" stroke="#000000" points="407,-97 407,-103 427,-103 427,-97 407,-97"/>
<polygon fill="#cccccc" stroke="transparent" points="427,-97 427,-103 447,-103 447,-97 427,-97"/>
<polygon fill="none" stroke="#000000" points="427,-97 427,-103 447,-103 447,-97 427,-97"/>
<polygon fill="none" stroke="#000000" points="407,-76 407,-97 447,-97 447,-76 407,-76"/>
<text text-anchor="start" x="422.5" y="-82.8" font-family="Times,serif" font-size="14.00" fill="#000000">+</text>
</g>
<!-- a26&#45;&gt;a30 -->
<g id="edge25" class="edge">
<title>a26&#45;&gt;a30:p0</title>
<path fill="none" stroke="#000000" d="M427.4686,-143.931C423.5247,-135.1919 419.4834,-124.2102 417.8057,-113.1353"/>
<polygon fill="#000000" stroke="#000000" points="421.2815,-112.6912 417,-103 414.3035,-113.2459 421.2815,-112.6912"/>
</g>
<!-- a38 -->
<g id="node39" class="node">
<title>a38</title>
<polygon fill="#cccccc" stroke="transparent" points="481,-97 481,-103 501,-103 501,-97 481,-97"/>
<polygon fill="none" stroke="#000000" points="481,-97 481,-103 501,-103 501,-97 481,-97"/>
<polygon fill="#cccccc" stroke="transparent" points="501,-97 501,-103 521,-103 521,-97 501,-97"/>
<polygon fill="none" stroke="#000000" points="501,-97 501,-103 521,-103 521,-97 501,-97"/>
<polygon fill="none" stroke="#000000" points="481,-76 481,-97 521,-97 521,-76 481,-76"/>
<text text-anchor="start" x="498.5" y="-82.8" font-family="Times,serif" font-size="14.00" fill="#000000">&#45;</text>
</g>
<!-- a26&#45;&gt;a38 -->
<g id="edge11" class="edge">
<title>a26&#45;&gt;a38:p0</title>
<path fill="none" stroke="#000000" d="M445.77,-143.7333C452.7415,-130.1598 462.809,-112.6443 471.9615,-104.5151"/>
<polygon fill="#000000" stroke="#000000" points="473.6182,-107.6 481,-100 470.49,-101.3378 473.6182,-107.6"/>
</g>
<!-- a27 -->
<g id="node28" class="node">
<title>a27</title>
<ellipse fill="none" stroke="#000000" cx="548" cy="-234" rx="27" ry="18"/>
<text text-anchor="middle" x="548" y="-230.3" font-family="Times,serif" font-size="14.00" fill="#000000">w2</text>
</g>
<!-- a29 -->
<g id="node30" class="node">
<title>a29</title>
<polygon fill="#cccccc" stroke="transparent" points="491,-169 491,-175 511,-175 511,-169 491,-169"/>
<polygon fill="none" stroke="#000000" points="491,-169 491,-175 511,-175 511,-169 491,-169"/>
<polygon fill="#cccccc" stroke="transparent" points="511,-169 511,-175 531,-175 531,-169 511,-169"/>
<polygon fill="none" stroke="#000000" points="511,-169 511,-175 531,-175 531,-169 511,-169"/>
<polygon fill="none" stroke="#000000" points="491,-148 491,-169 531,-169 531,-148 491,-148"/>
<text text-anchor="start" x="506.5" y="-154.8" font-family="Times,serif" font-size="14.00" fill="#000000">×</text>
</g>
<!-- a27&#45;&gt;a29 -->
<g id="edge27" class="edge">
<title>a27&#45;&gt;a29:p0</title>
<path fill="none" stroke="#000000" d="M529.1541,-221.0524C518.4279,-212.3101 506.3541,-199.6993 502.3614,-184.9677"/>
<polygon fill="#000000" stroke="#000000" points="505.8212,-184.4343 501,-175 498.8856,-185.3817 505.8212,-184.4343"/>
</g>
<!-- a28&#45;&gt;a29 -->
<g id="edge28" class="edge">
<title>a28&#45;&gt;a29:p1</title>
<path fill="none" stroke="#000000" d="M668.97,-224.7047C638.799,-214.4996 589.5434,-197.2599 548,-180 544.6263,-178.5983 542.549,-176.8919 540.5802,-175.4156"/>
<polygon fill="#000000" stroke="#000000" points="541.5947,-172.0616 531,-172 539.2439,-178.655 541.5947,-172.0616"/>
</g>
<!-- a29&#45;&gt;a30 -->
<g id="edge26" class="edge">
<title>a29&#45;&gt;a30:p1</title>
<path fill="none" stroke="#000000" d="M497.059,-143.7333C485.5935,-129.4454 469.2318,-110.7897 456.5733,-103.3115"/>
<polygon fill="#000000" stroke="#000000" points="457.5948,-99.9614 447,-100 455.3064,-106.5768 457.5948,-99.9614"/>
</g>
<!-- a29&#45;&gt;a38 -->
<g id="edge12" class="edge">
<title>a29&#45;&gt;a38:p1</title>
<path fill="none" stroke="#000000" d="M511,-143.9245C511,-135.0755 511,-124.0186 511,-113.2085"/>
<polygon fill="#000000" stroke="#000000" points="514.5001,-113 511,-103 507.5001,-113 514.5001,-113"/>
</g>
<!-- a30&#45;&gt;a40 -->
<g id="edge3" class="edge">
<title>a30&#45;&gt;a40:p2</title>
<path fill="none" stroke="#000000" d="M398.9742,-71.8671C385.3478,-62.283 370.4795,-50.4756 363.7187,-40.5256"/>
<polygon fill="#000000" stroke="#000000" points="366.897,-39.0425 360,-31 360.3763,-41.5882 366.897,-39.0425"/>
</g>
<!-- a35 -->
<g id="node36" class="node">
<title>a35</title>
<polygon fill="#cccccc" stroke="transparent" points="111,-97 111,-103 131,-103 131,-97 111,-97"/>
<polygon fill="none" stroke="#000000" points="111,-97 111,-103 131,-103 131,-97 111,-97"/>
<polygon fill="#cccccc" stroke="transparent" points="131,-97 131,-103 151,-103 151,-97 131,-97"/>
<polygon fill="none" stroke="#000000" points="131,-97 131,-103 151,-103 151,-97 131,-97"/>
<polygon fill="none" stroke="#000000" points="111,-76 111,-97 151,-97 151,-76 111,-76"/>
<text text-anchor="start" x="126.5" y="-82.8" font-family="Times,serif" font-size="14.00" fill="#000000">+</text>
</g>
<!-- a31&#45;&gt;a35 -->
<g id="edge17" class="edge">
<title>a31&#45;&gt;a35:p0</title>
<path fill="none" stroke="#000000" d="M79.2167,-143.7333C81.9723,-128.731 88.0467,-108.9132 101.254,-102.2755"/>
<polygon fill="#000000" stroke="#000000" points="102.0577,-105.6821 111,-100 100.4661,-98.8654 102.0577,-105.6821"/>
</g>
<!-- a39 -->
<g id="node40" class="node">
<title>a39</title>
<polygon fill="#cccccc" stroke="transparent" points="185,-97 185,-103 205,-103 205,-97 185,-97"/>
<polygon fill="none" stroke="#000000" points="185,-97 185,-103 205,-103 205,-97 185,-97"/>
<polygon fill="#cccccc" stroke="transparent" points="205,-97 205,-103 225,-103 225,-97 205,-97"/>
<polygon fill="none" stroke="#000000" points="205,-97 205,-103 225,-103 225,-97 205,-97"/>
<polygon fill="none" stroke="#000000" points="185,-76 185,-97 225,-97 225,-76 185,-76"/>
<text text-anchor="start" x="202.5" y="-82.8" font-family="Times,serif" font-size="14.00" fill="#000000">&#45;</text>
</g>
<!-- a31&#45;&gt;a39 -->
<g id="edge9" class="edge">
<title>a31&#45;&gt;a39:p0</title>
<path fill="none" stroke="#000000" d="M105.1744,-144.8941C128.2578,-130.987 159.5981,-112.3761 175.3946,-104.1771"/>
<polygon fill="#000000" stroke="#000000" points="177.2254,-107.1976 185,-100 174.4338,-100.7784 177.2254,-107.1976"/>
</g>
<!-- a32 -->
<g id="node33" class="node">
<title>a32</title>
<ellipse fill="none" stroke="#000000" cx="178" cy="-234" rx="27" ry="18"/>
<text text-anchor="middle" x="178" y="-230.3" font-family="Times,serif" font-size="14.00" fill="#000000">w3</text>
</g>
<!-- a34 -->
<g id="node35" class="node">
<title>a34</title>
<polygon fill="#cccccc" stroke="transparent" points="205,-169 205,-175 225,-175 225,-169 205,-169"/>
<polygon fill="none" stroke="#000000" points="205,-169 205,-175 225,-175 225,-169 205,-169"/>
<polygon fill="#cccccc" stroke="transparent" points="225,-169 225,-175 245,-175 245,-169 225,-169"/>
<polygon fill="none" stroke="#000000" points="225,-169 225,-175 245,-175 245,-169 225,-169"/>
<polygon fill="none" stroke="#000000" points="205,-148 205,-169 245,-169 245,-148 205,-148"/>
<text text-anchor="start" x="220.5" y="-154.8" font-family="Times,serif" font-size="14.00" fill="#000000">×</text>
</g>
<!-- a32&#45;&gt;a34 -->
<g id="edge19" class="edge">
<title>a32&#45;&gt;a34:p0</title>
<path fill="none" stroke="#000000" d="M178.4949,-215.7333C179.7707,-201.0168 183.6885,-181.6664 195.2026,-174.669"/>
<polygon fill="#000000" stroke="#000000" points="196.2716,-178.0054 205,-172 194.4316,-171.2516 196.2716,-178.0054"/>
</g>
<!-- a33&#45;&gt;a34 -->
<g id="edge20" class="edge">
<title>a33&#45;&gt;a34:p1</title>
<path fill="none" stroke="#000000" d="M342.9391,-215.7333C322.7032,-199.0879 289.611,-176.5144 255.2135,-172.5925"/>
<polygon fill="#000000" stroke="#000000" points="255.186,-169.0851 245,-172 254.7805,-176.0734 255.186,-169.0851"/>
</g>
<!-- a34&#45;&gt;a35 -->
<g id="edge18" class="edge">
<title>a34&#45;&gt;a35:p1</title>
<path fill="none" stroke="#000000" d="M205.8603,-143.7333C191.3494,-130.1598 171.944,-112.6443 160.0932,-104.5151"/>
<polygon fill="#000000" stroke="#000000" points="161.5132,-101.3125 151,-100 158.4001,-107.5822 161.5132,-101.3125"/>
</g>
<!-- a34&#45;&gt;a39 -->
<g id="edge10" class="edge">
<title>a34&#45;&gt;a39:p1</title>
<path fill="none" stroke="#000000" d="M220.2928,-143.797C218.3273,-135.0107 216.3012,-124.0474 215.4351,-113.239"/>
<polygon fill="#000000" stroke="#000000" points="218.9215,-112.8424 215,-103 211.9278,-113.1396 218.9215,-112.8424"/>
</g>
<!-- a35&#45;&gt;a40 -->
<g id="edge4" class="edge">
<title>a35&#45;&gt;a40:p3</title>
<path fill="none" stroke="#000000" d="M159.3725,-75.2844C162.2457,-74.0715 165.1539,-72.9492 168,-72 209.9631,-58.005 354.7257,-75.7487 377.0887,-41.0131"/>
<polygon fill="#000000" stroke="#000000" points="380.5689,-41.5796 380,-31 373.8472,-39.6252 380.5689,-41.5796"/>
</g>
<!-- a36&#45;&gt;a40 -->
<g id="edge5" class="edge">
<title>a36&#45;&gt;a40:p4</title>
<path fill="none" stroke="#000000" d="M620.6275,-75.2844C617.7543,-74.0715 614.8461,-72.9492 612,-72 570.0369,-58.005 425.2743,-75.7487 402.9113,-41.0131"/>
<polygon fill="#000000" stroke="#000000" points="406.1528,-39.6252 400,-31 399.4311,-41.5796 406.1528,-39.6252"/>
</g>
<!-- a37&#45;&gt;a40 -->
<g id="edge6" class="edge">
<title>a37&#45;&gt;a40:p5</title>
<path fill="none" stroke="#000000" d="M381.0258,-71.8671C394.6522,-62.283 409.5205,-50.4756 416.2813,-40.5256"/>
<polygon fill="#000000" stroke="#000000" points="419.6237,-41.5882 420,-31 413.103,-39.0425 419.6237,-41.5882"/>
</g>
<!-- a38&#45;&gt;a40 -->
<g id="edge7" class="edge">
<title>a38&#45;&gt;a40:p6</title>
<path fill="none" stroke="#000000" d="M472.9995,-76.2481C459.845,-68.0136 446.0663,-56.2251 441.5393,-41.2752"/>
<polygon fill="#000000" stroke="#000000" points="444.943,-40.3711 440,-31 438.0203,-41.4082 444.943,-40.3711"/>
</g>
<!-- a39&#45;&gt;a40 -->
<g id="edge8" class="edge">
<title>a39&#45;&gt;a40:p7</title>
<path fill="none" stroke="#000000" d="M233.3674,-75.2691C236.2417,-74.0592 239.1514,-72.9419 242,-72 285.3281,-57.6733 435.273,-76.9817 457.2917,-40.8141"/>
<polygon fill="#000000" stroke="#000000" points="460.7137,-41.5708 460,-31 453.9659,-39.7086 460.7137,-41.5708"/>
</g>
</g>
</svg>
