<?xml version="1.0" encoding="UTF-8" standalone="no"?>
<!DOCTYPE svg PUBLIC "-//W3C//DTD SVG 1.1//EN"
 "http://www.w3.org/Graphics/SVG/1.1/DTD/svg11.dtd">
<!-- Generated by graphviz version 2.40.1 (20161225.0304)
 -->
<!-- Title: callgraph Pages: 1 -->
<svg width="654pt" height="347pt"
 viewBox="0.00 0.00 654.00 347.00" xmlns="http://www.w3.org/2000/svg" xmlns:xlink="http://www.w3.org/1999/xlink">
<g id="graph0" class="graph" transform="scale(1 1) rotate(0) translate(4 343)">
<title>callgraph</title>
<polygon fill="#ffffff" stroke="transparent" points="-4,4 -4,-343 650,-343 650,4 -4,4"/>
<!-- a0 -->
<g id="node1" class="node">
<title>a0</title>
<polygon fill="none" stroke="#000000" points="247,-313 247,-334 327,-334 327,-313 247,-313"/>
<text text-anchor="start" x="273" y="-319.8" font-family="Times,serif" font-size="14.00" fill="#000000">input</text>
<polygon fill="#cccccc" stroke="transparent" points="247,-307 247,-313 267,-313 267,-307 247,-307"/>
<polygon fill="none" stroke="#000000" points="247,-307 247,-313 267,-313 267,-307 247,-307"/>
<polygon fill="#cccccc" stroke="transparent" points="267,-307 267,-313 287,-313 287,-307 267,-307"/>
<polygon fill="none" stroke="#000000" points="267,-307 267,-313 287,-313 287,-307 267,-307"/>
<polygon fill="#cccccc" stroke="transparent" points="287,-307 287,-313 307,-313 307,-307 287,-307"/>
<polygon fill="none" stroke="#000000" points="287,-307 287,-313 307,-313 307,-307 287,-307"/>
<polygon fill="#cccccc" stroke="transparent" points="307,-307 307,-313 327,-313 327,-307 307,-307"/>
<polygon fill="none" stroke="#000000" points="307,-307 307,-313 327,-313 327,-307 307,-307"/>
</g>
<!-- a1 -->
<g id="node2" class="node">
<title>a1</title>
<polygon fill="#cccccc" stroke="transparent" points="8,-256.5 8,-262.5 28,-262.5 28,-256.5 8,-256.5"/>
<polygon fill="none" stroke="#000000" points="8,-256.5 8,-262.5 28,-262.5 28,-256.5 8,-256.5"/>
<polygon fill="#cccccc" stroke="transparent" points="28,-256.5 28,-262.5 48,-262.5 48,-256.5 28,-256.5"/>
<polygon fill="none" stroke="#000000" points="28,-256.5 28,-262.5 48,-262.5 48,-256.5 28,-256.5"/>
<polygon fill="none" stroke="#000000" points="8,-235.5 8,-256.5 48,-256.5 48,-235.5 8,-235.5"/>
<text text-anchor="start" x="23.5" y="-242.3" font-family="Times,serif" font-size="14.00" fill="#000000">+</text>
<polygon fill="#cccccc" stroke="transparent" points="8,-229.5 8,-235.5 28,-235.5 28,-229.5 8,-229.5"/>
<polygon fill="none" stroke="#000000" points="8,-229.5 8,-235.5 28,-235.5 28,-229.5 8,-229.5"/>
</g>
<!-- a0&#45;&gt;a1 -->
<g id="edge1" class="edge">
<title>a0:out0&#45;&gt;a1:inp0</title>
<path fill="none" stroke="#000000" d="M247,-310C223.7547,-310 58.8541,-292.7848 24.3289,-270.5529"/>
<polygon fill="#000000" stroke="#000000" points="26.9311,-268.1997 18,-262.5 21.4274,-272.5252 26.9311,-268.1997"/>
</g>
<!-- a0&#45;&gt;a1 -->
<g id="edge2" class="edge">
<title>a0:out2&#45;&gt;a1:inp1</title>
<path fill="none" stroke="#000000" d="M297,-307C297,-254.6838 115.0849,-282.116 65,-267 61.5411,-265.9561 59.4355,-264.3901 57.4696,-262.9586"/>
<polygon fill="#000000" stroke="#000000" points="58.5939,-259.6431 48,-259.5 56.1924,-266.2183 58.5939,-259.6431"/>
</g>
<!-- a2 -->
<g id="node3" class="node">
<title>a2</title>
<polygon fill="#cccccc" stroke="transparent" points="304,-256.5 304,-262.5 324,-262.5 324,-256.5 304,-256.5"/>
<polygon fill="none" stroke="#000000" points="304,-256.5 304,-262.5 324,-262.5 324,-256.5 304,-256.5"/>
<polygon fill="#cccccc" stroke="transparent" points="324,-256.5 324,-262.5 344,-262.5 344,-256.5 324,-256.5"/>
<polygon fill="none" stroke="#000000" points="324,-256.5 324,-262.5 344,-262.5 344,-256.5 324,-256.5"/>
<polygon fill="none" stroke="#000000" points="304,-235.5 304,-256.5 344,-256.5 344,-235.5 304,-235.5"/>
<text text-anchor="start" x="319.5" y="-242.3" font-family="Times,serif" font-size="14.00" fill="#000000">+</text>
<polygon fill="#cccccc" stroke="transparent" points="304,-229.5 304,-235.5 324,-235.5 324,-229.5 304,-229.5"/>
<polygon fill="none" stroke="#000000" points="304,-229.5 304,-235.5 324,-235.5 324,-229.5 304,-229.5"/>
</g>
<!-- a0&#45;&gt;a2 -->
<g id="edge3" class="edge">
<title>a0:out1&#45;&gt;a2:inp0</title>
<path fill="none" stroke="#000000" d="M277,-307C277,-297.704 285.7097,-274.7989 295.2415,-264.5727"/>
<polygon fill="#000000" stroke="#000000" points="297.1008,-267.5406 304,-259.5 293.5924,-261.4832 297.1008,-267.5406"/>
</g>
<!-- a0&#45;&gt;a2 -->
<g id="edge4" class="edge">
<title>a0:out3&#45;&gt;a2:inp1</title>
<path fill="none" stroke="#000000" d="M317,-307C317,-289.7979 328.2227,-285.149 332.4312,-272.6543"/>
<polygon fill="#000000" stroke="#000000" points="335.932,-272.9172 334,-262.5 329.0141,-271.8483 335.932,-272.9172"/>
</g>
<!-- a4 -->
<g id="node5" class="node">
<title>a4</title>
<polygon fill="#cccccc" stroke="transparent" points="82,-256.5 82,-262.5 102,-262.5 102,-256.5 82,-256.5"/>
<polygon fill="none" stroke="#000000" points="82,-256.5 82,-262.5 102,-262.5 102,-256.5 82,-256.5"/>
<polygon fill="#cccccc" stroke="transparent" points="102,-256.5 102,-262.5 122,-262.5 122,-256.5 102,-256.5"/>
<polygon fill="none" stroke="#000000" points="102,-256.5 102,-262.5 122,-262.5 122,-256.5 102,-256.5"/>
<polygon fill="none" stroke="#000000" points="82,-235.5 82,-256.5 122,-256.5 122,-235.5 82,-235.5"/>
<text text-anchor="start" x="99.5" y="-242.3" font-family="Times,serif" font-size="14.00" fill="#000000">&#45;</text>
<polygon fill="#cccccc" stroke="transparent" points="82,-229.5 82,-235.5 102,-235.5 102,-229.5 82,-229.5"/>
<polygon fill="none" stroke="#000000" points="82,-229.5 82,-235.5 102,-235.5 102,-229.5 82,-229.5"/>
</g>
<!-- a0&#45;&gt;a4 -->
<g id="edge7" class="edge">
<title>a0:out0&#45;&gt;a4:inp0</title>
<path fill="none" stroke="#000000" d="M247,-310C214.4926,-310 114.4461,-300.6572 95.2158,-272.3641"/>
<polygon fill="#000000" stroke="#000000" points="98.4273,-270.9226 92,-262.5 91.772,-273.0924 98.4273,-270.9226"/>
</g>
<!-- a0&#45;&gt;a4 -->
<g id="edge8" class="edge">
<title>a0:out2&#45;&gt;a4:inp1</title>
<path fill="none" stroke="#000000" d="M297,-307C297,-234.5624 207.4885,-290.591 139,-267 135.584,-265.8234 133.4838,-264.2407 131.5103,-262.8326"/>
<polygon fill="#000000" stroke="#000000" points="132.5948,-259.504 122,-259.5 130.2799,-266.1102 132.5948,-259.504"/>
</g>
<!-- a6 -->
<g id="node7" class="node">
<title>a6</title>
<polygon fill="#cccccc" stroke="transparent" points="452,-256.5 452,-262.5 472,-262.5 472,-256.5 452,-256.5"/>
<polygon fill="none" stroke="#000000" points="452,-256.5 452,-262.5 472,-262.5 472,-256.5 452,-256.5"/>
<polygon fill="#cccccc" stroke="transparent" points="472,-256.5 472,-262.5 492,-262.5 492,-256.5 472,-256.5"/>
<polygon fill="none" stroke="#000000" points="472,-256.5 472,-262.5 492,-262.5 492,-256.5 472,-256.5"/>
<polygon fill="none" stroke="#000000" points="452,-235.5 452,-256.5 492,-256.5 492,-235.5 452,-235.5"/>
<text text-anchor="start" x="469.5" y="-242.3" font-family="Times,serif" font-size="14.00" fill="#000000">&#45;</text>
<polygon fill="#cccccc" stroke="transparent" points="452,-229.5 452,-235.5 472,-235.5 472,-229.5 452,-229.5"/>
<polygon fill="none" stroke="#000000" points="452,-229.5 452,-235.5 472,-235.5 472,-229.5 452,-229.5"/>
</g>
<!-- a0&#45;&gt;a6 -->
<g id="edge9" class="edge">
<title>a0:out1&#45;&gt;a6:inp0</title>
<path fill="none" stroke="#000000" d="M277,-307C277,-234.5624 366.5115,-290.591 435,-267 438.416,-265.8234 440.5162,-264.2407 442.4897,-262.8326"/>
<polygon fill="#000000" stroke="#000000" points="443.7201,-266.1102 452,-259.5 441.4052,-259.504 443.7201,-266.1102"/>
</g>
<!-- a0&#45;&gt;a6 -->
<g id="edge10" class="edge">
<title>a0:out3&#45;&gt;a6:inp1</title>
<path fill="none" stroke="#000000" d="M327,-310C359.5074,-310 459.5539,-300.6572 478.7842,-272.3641"/>
<polygon fill="#000000" stroke="#000000" points="482.228,-273.0924 482,-262.5 475.5727,-270.9226 482.228,-273.0924"/>
</g>
<!-- a9 -->
<g id="node10" class="node">
<title>a9</title>
<polygon fill="#cccccc" stroke="transparent" points="156,-256.5 156,-262.5 176,-262.5 176,-256.5 156,-256.5"/>
<polygon fill="none" stroke="#000000" points="156,-256.5 156,-262.5 176,-262.5 176,-256.5 156,-256.5"/>
<polygon fill="#cccccc" stroke="transparent" points="176,-256.5 176,-262.5 196,-262.5 196,-256.5 176,-256.5"/>
<polygon fill="none" stroke="#000000" points="176,-256.5 176,-262.5 196,-262.5 196,-256.5 176,-256.5"/>
<polygon fill="none" stroke="#000000" points="156,-235.5 156,-256.5 196,-256.5 196,-235.5 156,-235.5"/>
<text text-anchor="start" x="171.5" y="-242.3" font-family="Times,serif" font-size="14.00" fill="#000000">+</text>
<polygon fill="#cccccc" stroke="transparent" points="156,-229.5 156,-235.5 176,-235.5 176,-229.5 156,-229.5"/>
<polygon fill="none" stroke="#000000" points="156,-229.5 156,-235.5 176,-235.5 176,-229.5 156,-229.5"/>
</g>
<!-- a0&#45;&gt;a9 -->
<g id="edge15" class="edge">
<title>a0:out0&#45;&gt;a9:inp0</title>
<path fill="none" stroke="#000000" d="M247,-310C208.853,-310 172.7672,-305.182 166.8466,-272.4817"/>
<polygon fill="#000000" stroke="#000000" points="170.3327,-272.1684 166,-262.5 163.3578,-272.7601 170.3327,-272.1684"/>
</g>
<!-- a0&#45;&gt;a9 -->
<g id="edge16" class="edge">
<title>a0:out2&#45;&gt;a9:inp1</title>
<path fill="none" stroke="#000000" d="M297,-307C297,-306.3672 230.1982,-275.108 205.2476,-263.6513"/>
<polygon fill="#000000" stroke="#000000" points="206.5563,-260.4024 196,-259.5 203.6896,-266.7884 206.5563,-260.4024"/>
</g>
<!-- a10 -->
<g id="node11" class="node">
<title>a10</title>
<polygon fill="#cccccc" stroke="transparent" points="378,-256.5 378,-262.5 398,-262.5 398,-256.5 378,-256.5"/>
<polygon fill="none" stroke="#000000" points="378,-256.5 378,-262.5 398,-262.5 398,-256.5 378,-256.5"/>
<polygon fill="#cccccc" stroke="transparent" points="398,-256.5 398,-262.5 418,-262.5 418,-256.5 398,-256.5"/>
<polygon fill="none" stroke="#000000" points="398,-256.5 398,-262.5 418,-262.5 418,-256.5 398,-256.5"/>
<polygon fill="none" stroke="#000000" points="378,-235.5 378,-256.5 418,-256.5 418,-235.5 378,-235.5"/>
<text text-anchor="start" x="393.5" y="-242.3" font-family="Times,serif" font-size="14.00" fill="#000000">+</text>
<polygon fill="#cccccc" stroke="transparent" points="378,-229.5 378,-235.5 398,-235.5 398,-229.5 378,-229.5"/>
<polygon fill="none" stroke="#000000" points="378,-229.5 378,-235.5 398,-235.5 398,-229.5 378,-229.5"/>
</g>
<!-- a0&#45;&gt;a10 -->
<g id="edge17" class="edge">
<title>a0:out1&#45;&gt;a10:inp0</title>
<path fill="none" stroke="#000000" d="M277,-307C277,-306.3672 343.8018,-275.108 368.7524,-263.6513"/>
<polygon fill="#000000" stroke="#000000" points="370.3104,-266.7884 378,-259.5 367.4437,-260.4024 370.3104,-266.7884"/>
</g>
<!-- a0&#45;&gt;a10 -->
<g id="edge18" class="edge">
<title>a0:out3&#45;&gt;a10:inp1</title>
<path fill="none" stroke="#000000" d="M327,-310C365.147,-310 401.2328,-305.182 407.1534,-272.4817"/>
<polygon fill="#000000" stroke="#000000" points="410.6422,-272.7601 408,-262.5 403.6673,-272.1684 410.6422,-272.7601"/>
</g>
<!-- a12 -->
<g id="node13" class="node">
<title>a12</title>
<polygon fill="#cccccc" stroke="transparent" points="230,-256.5 230,-262.5 250,-262.5 250,-256.5 230,-256.5"/>
<polygon fill="none" stroke="#000000" points="230,-256.5 230,-262.5 250,-262.5 250,-256.5 230,-256.5"/>
<polygon fill="#cccccc" stroke="transparent" points="250,-256.5 250,-262.5 270,-262.5 270,-256.5 250,-256.5"/>
<polygon fill="none" stroke="#000000" points="250,-256.5 250,-262.5 270,-262.5 270,-256.5 250,-256.5"/>
<polygon fill="none" stroke="#000000" points="230,-235.5 230,-256.5 270,-256.5 270,-235.5 230,-235.5"/>
<text text-anchor="start" x="247.5" y="-242.3" font-family="Times,serif" font-size="14.00" fill="#000000">&#45;</text>
<polygon fill="#cccccc" stroke="transparent" points="230,-229.5 230,-235.5 250,-235.5 250,-229.5 230,-229.5"/>
<polygon fill="none" stroke="#000000" points="230,-229.5 230,-235.5 250,-235.5 250,-229.5 230,-229.5"/>
</g>
<!-- a0&#45;&gt;a12 -->
<g id="edge21" class="edge">
<title>a0:out0&#45;&gt;a12:inp0</title>
<path fill="none" stroke="#000000" d="M257,-307C257,-289.7979 245.7773,-285.149 241.5688,-272.6543"/>
<polygon fill="#000000" stroke="#000000" points="244.9859,-271.8483 240,-262.5 238.068,-272.9172 244.9859,-271.8483"/>
</g>
<!-- a0&#45;&gt;a12 -->
<g id="edge22" class="edge">
<title>a0:out2&#45;&gt;a12:inp1</title>
<path fill="none" stroke="#000000" d="M297,-307C297,-297.704 288.2903,-274.7989 278.7585,-264.5727"/>
<polygon fill="#000000" stroke="#000000" points="280.4076,-261.4832 270,-259.5 276.8992,-267.5406 280.4076,-261.4832"/>
</g>
<!-- a13 -->
<g id="node14" class="node">
<title>a13</title>
<polygon fill="#cccccc" stroke="transparent" points="598,-256.5 598,-262.5 618,-262.5 618,-256.5 598,-256.5"/>
<polygon fill="none" stroke="#000000" points="598,-256.5 598,-262.5 618,-262.5 618,-256.5 598,-256.5"/>
<polygon fill="#cccccc" stroke="transparent" points="618,-256.5 618,-262.5 638,-262.5 638,-256.5 618,-256.5"/>
<polygon fill="none" stroke="#000000" points="618,-256.5 618,-262.5 638,-262.5 638,-256.5 618,-256.5"/>
<polygon fill="none" stroke="#000000" points="598,-235.5 598,-256.5 638,-256.5 638,-235.5 598,-235.5"/>
<text text-anchor="start" x="615.5" y="-242.3" font-family="Times,serif" font-size="14.00" fill="#000000">&#45;</text>
<polygon fill="#cccccc" stroke="transparent" points="598,-229.5 598,-235.5 618,-235.5 618,-229.5 598,-229.5"/>
<polygon fill="none" stroke="#000000" points="598,-229.5 598,-235.5 618,-235.5 618,-229.5 598,-229.5"/>
</g>
<!-- a0&#45;&gt;a13 -->
<g id="edge23" class="edge">
<title>a0:out1&#45;&gt;a13:inp0</title>
<path fill="none" stroke="#000000" d="M277,-307C277,-238.8622 515.3885,-285.3819 581,-267 584.479,-266.0253 586.5871,-264.4679 588.5495,-263.0243"/>
<polygon fill="#000000" stroke="#000000" points="589.8533,-266.2736 598,-259.5 587.4073,-259.7148 589.8533,-266.2736"/>
</g>
<!-- a0&#45;&gt;a13 -->
<g id="edge24" class="edge">
<title>a0:out3&#45;&gt;a13:inp1</title>
<path fill="none" stroke="#000000" d="M327,-310C357.9486,-310 583.8079,-298.6022 622.3989,-270.7854"/>
<polygon fill="#000000" stroke="#000000" points="625.299,-272.7448 628,-262.5 619.4998,-268.8243 625.299,-272.7448"/>
</g>
<!-- a3 -->
<g id="node4" class="node">
<title>a3</title>
<polygon fill="#cccccc" stroke="transparent" points="120,-179.5 120,-185.5 140,-185.5 140,-179.5 120,-179.5"/>
<polygon fill="none" stroke="#000000" points="120,-179.5 120,-185.5 140,-185.5 140,-179.5 120,-179.5"/>
<polygon fill="#cccccc" stroke="transparent" points="140,-179.5 140,-185.5 160,-185.5 160,-179.5 140,-179.5"/>
<polygon fill="none" stroke="#000000" points="140,-179.5 140,-185.5 160,-185.5 160,-179.5 140,-179.5"/>
<polygon fill="none" stroke="#000000" points="120,-158.5 120,-179.5 160,-179.5 160,-158.5 120,-158.5"/>
<text text-anchor="start" x="135.5" y="-165.3" font-family="Times,serif" font-size="14.00" fill="#000000">+</text>
<polygon fill="#cccccc" stroke="transparent" points="120,-152.5 120,-158.5 140,-158.5 140,-152.5 120,-152.5"/>
<polygon fill="none" stroke="#000000" points="120,-152.5 120,-158.5 140,-158.5 140,-152.5 120,-152.5"/>
</g>
<!-- a1&#45;&gt;a3 -->
<g id="edge5" class="edge">
<title>a1:out0&#45;&gt;a3:inp0</title>
<path fill="none" stroke="#000000" d="M18,-229.5C18,-207.3699 78.5764,-187.5315 109.701,-183.3208"/>
<polygon fill="#000000" stroke="#000000" points="110.3097,-186.7835 120,-182.5 109.7535,-179.8056 110.3097,-186.7835"/>
</g>
<!-- a2&#45;&gt;a3 -->
<g id="edge6" class="edge">
<title>a2:out0&#45;&gt;a3:inp1</title>
<path fill="none" stroke="#000000" d="M304,-232.5C295.911,-232.5 294.6052,-228.7554 287,-226 234.1914,-206.867 221.135,-185.2062 170.0078,-182.7335"/>
<polygon fill="#000000" stroke="#000000" points="170.0789,-179.2343 160,-182.5 169.9156,-186.2324 170.0789,-179.2343"/>
</g>
<!-- a16 -->
<g id="node17" class="node">
<title>a16</title>
<polygon fill="#cccccc" stroke="transparent" points="189,-25 189,-31 209,-31 209,-25 189,-25"/>
<polygon fill="none" stroke="#000000" points="189,-25 189,-31 209,-31 209,-25 189,-25"/>
<polygon fill="#cccccc" stroke="transparent" points="209,-25 209,-31 229,-31 229,-25 209,-25"/>
<polygon fill="none" stroke="#000000" points="209,-25 209,-31 229,-31 229,-25 209,-25"/>
<polygon fill="#cccccc" stroke="transparent" points="229,-25 229,-31 249,-31 249,-25 229,-25"/>
<polygon fill="none" stroke="#000000" points="229,-25 229,-31 249,-31 249,-25 229,-25"/>
<polygon fill="#cccccc" stroke="transparent" points="249,-25 249,-31 269,-31 269,-25 249,-25"/>
<polygon fill="none" stroke="#000000" points="249,-25 249,-31 269,-31 269,-25 249,-25"/>
<polygon fill="none" stroke="#000000" points="189,-4 189,-25 269,-25 269,-4 189,-4"/>
<text text-anchor="start" x="211.5" y="-10.8" font-family="Times,serif" font-size="14.00" fill="#000000">output</text>
</g>
<!-- a3&#45;&gt;a16 -->
<g id="edge29" class="edge">
<title>a3:out0&#45;&gt;a16:inp0</title>
<path fill="none" stroke="#000000" d="M130,-152.5C130,-94.8556 128.0217,-35.4072 178.877,-28.6385"/>
<polygon fill="#000000" stroke="#000000" points="179.2402,-32.1226 189,-28 178.7995,-25.1365 179.2402,-32.1226"/>
</g>
<!-- a8 -->
<g id="node9" class="node">
<title>a8</title>
<polygon fill="#cccccc" stroke="transparent" points="186,-102.5 186,-108.5 206,-108.5 206,-102.5 186,-102.5"/>
<polygon fill="none" stroke="#000000" points="186,-102.5 186,-108.5 206,-108.5 206,-102.5 186,-102.5"/>
<polygon fill="#cccccc" stroke="transparent" points="206,-102.5 206,-108.5 226,-108.5 226,-102.5 206,-102.5"/>
<polygon fill="none" stroke="#000000" points="206,-102.5 206,-108.5 226,-108.5 226,-102.5 206,-102.5"/>
<polygon fill="none" stroke="#000000" points="186,-81.5 186,-102.5 226,-102.5 226,-81.5 186,-81.5"/>
<text text-anchor="start" x="201.5" y="-88.3" font-family="Times,serif" font-size="14.00" fill="#000000">+</text>
<polygon fill="#cccccc" stroke="transparent" points="186,-75.5 186,-81.5 206,-81.5 206,-75.5 186,-75.5"/>
<polygon fill="none" stroke="#000000" points="186,-75.5 186,-81.5 206,-81.5 206,-75.5 186,-75.5"/>
</g>
<!-- a4&#45;&gt;a8 -->
<g id="edge13" class="edge">
<title>a4:out0&#45;&gt;a8:inp0</title>
<path fill="none" stroke="#000000" d="M92,-229.5C92,-187.8424 150.728,-222.3286 177,-190 198.1659,-163.9545 196.6042,-148.8376 196.0974,-118.807"/>
<polygon fill="#000000" stroke="#000000" points="199.5944,-118.4665 196,-108.5 192.5947,-118.5326 199.5944,-118.4665"/>
</g>
<!-- a5 -->
<g id="node6" class="node">
<title>a5</title>
<polygon fill="none" stroke="#000000" points="534,-238.5 534,-259.5 557,-259.5 557,-238.5 534,-238.5"/>
<text text-anchor="start" x="537" y="-245.3" font-family="Times,serif" font-size="14.00" fill="#000000">w1</text>
<polygon fill="#cccccc" stroke="transparent" points="534,-232.5 534,-238.5 557,-238.5 557,-232.5 534,-232.5"/>
<polygon fill="none" stroke="#000000" points="534,-232.5 534,-238.5 557,-238.5 557,-232.5 534,-232.5"/>
</g>
<!-- a7 -->
<g id="node8" class="node">
<title>a7</title>
<polygon fill="#cccccc" stroke="transparent" points="432,-179.5 432,-185.5 452,-185.5 452,-179.5 432,-179.5"/>
<polygon fill="none" stroke="#000000" points="432,-179.5 432,-185.5 452,-185.5 452,-179.5 432,-179.5"/>
<polygon fill="#cccccc" stroke="transparent" points="452,-179.5 452,-185.5 472,-185.5 472,-179.5 452,-179.5"/>
<polygon fill="none" stroke="#000000" points="452,-179.5 452,-185.5 472,-185.5 472,-179.5 452,-179.5"/>
<polygon fill="none" stroke="#000000" points="432,-158.5 432,-179.5 472,-179.5 472,-158.5 432,-158.5"/>
<text text-anchor="start" x="447.5" y="-165.3" font-family="Times,serif" font-size="14.00" fill="#000000">×</text>
<polygon fill="#cccccc" stroke="transparent" points="432,-152.5 432,-158.5 452,-158.5 452,-152.5 432,-152.5"/>
<polygon fill="none" stroke="#000000" points="432,-152.5 432,-158.5 452,-158.5 452,-152.5 432,-152.5"/>
</g>
<!-- a5&#45;&gt;a7 -->
<g id="edge11" class="edge">
<title>a5:out0&#45;&gt;a7:inp0</title>
<path fill="none" stroke="#000000" d="M534,-235.5C529.2508,-235.5 470.9364,-206.0513 449.6841,-192.0727"/>
<polygon fill="#000000" stroke="#000000" points="451.8743,-189.3404 442,-185.5 447.3243,-194.6599 451.8743,-189.3404"/>
</g>
<!-- a14 -->
<g id="node15" class="node">
<title>a14</title>
<polygon fill="#cccccc" stroke="transparent" points="536,-179.5 536,-185.5 556,-185.5 556,-179.5 536,-179.5"/>
<polygon fill="none" stroke="#000000" points="536,-179.5 536,-185.5 556,-185.5 556,-179.5 536,-179.5"/>
<polygon fill="#cccccc" stroke="transparent" points="556,-179.5 556,-185.5 576,-185.5 576,-179.5 556,-179.5"/>
<polygon fill="none" stroke="#000000" points="556,-179.5 556,-185.5 576,-185.5 576,-179.5 556,-179.5"/>
<polygon fill="none" stroke="#000000" points="536,-158.5 536,-179.5 576,-179.5 576,-158.5 536,-158.5"/>
<text text-anchor="start" x="551.5" y="-165.3" font-family="Times,serif" font-size="14.00" fill="#000000">×</text>
<polygon fill="#cccccc" stroke="transparent" points="536,-152.5 536,-158.5 556,-158.5 556,-152.5 536,-152.5"/>
<polygon fill="none" stroke="#000000" points="536,-152.5 536,-158.5 556,-158.5 556,-152.5 536,-152.5"/>
</g>
<!-- a5&#45;&gt;a14 -->
<g id="edge25" class="edge">
<title>a5:out0&#45;&gt;a14:inp0</title>
<path fill="none" stroke="#000000" d="M546,-232.5C546,-215.5278 546,-208.898 546,-195.8042"/>
<polygon fill="#000000" stroke="#000000" points="549.5001,-195.5 546,-185.5 542.5001,-195.5 549.5001,-195.5"/>
</g>
<!-- a6&#45;&gt;a7 -->
<g id="edge12" class="edge">
<title>a6:out0&#45;&gt;a7:inp1</title>
<path fill="none" stroke="#000000" d="M462,-229.5C462,-213.9167 462,-207.6468 462,-195.8471"/>
<polygon fill="#000000" stroke="#000000" points="465.5001,-195.5 462,-185.5 458.5001,-195.5 465.5001,-195.5"/>
</g>
<!-- a7&#45;&gt;a8 -->
<g id="edge14" class="edge">
<title>a7:out0&#45;&gt;a8:inp1</title>
<path fill="none" stroke="#000000" d="M432,-155.5C341.2824,-155.5 321.6236,-109.1421 236.1799,-105.7015"/>
<polygon fill="#000000" stroke="#000000" points="236.0673,-102.1986 226,-105.5 235.9288,-109.1973 236.0673,-102.1986"/>
</g>
<!-- a8&#45;&gt;a16 -->
<g id="edge30" class="edge">
<title>a8:out0&#45;&gt;a16:inp1</title>
<path fill="none" stroke="#000000" d="M196,-75.5C196,-57.2371 211.477,-53.9734 217.039,-41.1009"/>
<polygon fill="#000000" stroke="#000000" points="220.53,-41.4838 219,-31 213.6583,-40.1497 220.53,-41.4838"/>
</g>
<!-- a11 -->
<g id="node12" class="node">
<title>a11</title>
<polygon fill="#cccccc" stroke="transparent" points="242,-179.5 242,-185.5 262,-185.5 262,-179.5 242,-179.5"/>
<polygon fill="none" stroke="#000000" points="242,-179.5 242,-185.5 262,-185.5 262,-179.5 242,-179.5"/>
<polygon fill="#cccccc" stroke="transparent" points="262,-179.5 262,-185.5 282,-185.5 282,-179.5 262,-179.5"/>
<polygon fill="none" stroke="#000000" points="262,-179.5 262,-185.5 282,-185.5 282,-179.5 262,-179.5"/>
<polygon fill="none" stroke="#000000" points="242,-158.5 242,-179.5 282,-179.5 282,-158.5 242,-158.5"/>
<text text-anchor="start" x="259.5" y="-165.3" font-family="Times,serif" font-size="14.00" fill="#000000">&#45;</text>
<polygon fill="#cccccc" stroke="transparent" points="242,-152.5 242,-158.5 262,-158.5 262,-152.5 242,-152.5"/>
<polygon fill="none" stroke="#000000" points="242,-152.5 242,-158.5 262,-158.5 262,-152.5 242,-152.5"/>
</g>
<!-- a9&#45;&gt;a11 -->
<g id="edge19" class="edge">
<title>a9:out0&#45;&gt;a11:inp0</title>
<path fill="none" stroke="#000000" d="M166,-229.5C166,-212.3574 207.8404,-189.7856 232.0568,-183.9341"/>
<polygon fill="#000000" stroke="#000000" points="232.6021,-187.3917 242,-182.5 231.6028,-180.4634 232.6021,-187.3917"/>
</g>
<!-- a10&#45;&gt;a11 -->
<g id="edge20" class="edge">
<title>a10:out0&#45;&gt;a11:inp1</title>
<path fill="none" stroke="#000000" d="M378,-232.5C367.8525,-232.5 315.0471,-196.9043 291.569,-185.7806"/>
<polygon fill="#000000" stroke="#000000" points="292.5946,-182.4323 282,-182.5 290.3244,-189.054 292.5946,-182.4323"/>
</g>
<!-- a11&#45;&gt;a16 -->
<g id="edge31" class="edge">
<title>a11:out0&#45;&gt;a16:inp2</title>
<path fill="none" stroke="#000000" d="M252,-152.5C252,-140.8322 242.3992,-69.5146 239.6989,-41.0703"/>
<polygon fill="#000000" stroke="#000000" points="243.1841,-40.7336 239,-31 236.2009,-41.2184 243.1841,-40.7336"/>
</g>
<!-- a15 -->
<g id="node16" class="node">
<title>a15</title>
<polygon fill="#cccccc" stroke="transparent" points="308,-102.5 308,-108.5 328,-108.5 328,-102.5 308,-102.5"/>
<polygon fill="none" stroke="#000000" points="308,-102.5 308,-108.5 328,-108.5 328,-102.5 308,-102.5"/>
<polygon fill="#cccccc" stroke="transparent" points="328,-102.5 328,-108.5 348,-108.5 348,-102.5 328,-102.5"/>
<polygon fill="none" stroke="#000000" points="328,-102.5 328,-108.5 348,-108.5 348,-102.5 328,-102.5"/>
<polygon fill="none" stroke="#000000" points="308,-81.5 308,-102.5 348,-102.5 348,-81.5 308,-81.5"/>
<text text-anchor="start" x="325.5" y="-88.3" font-family="Times,serif" font-size="14.00" fill="#000000">&#45;</text>
<polygon fill="#cccccc" stroke="transparent" points="308,-75.5 308,-81.5 328,-81.5 328,-75.5 308,-75.5"/>
<polygon fill="none" stroke="#000000" points="308,-75.5 308,-81.5 328,-81.5 328,-75.5 308,-75.5"/>
</g>
<!-- a12&#45;&gt;a15 -->
<g id="edge27" class="edge">
<title>a12:out0&#45;&gt;a15:inp0</title>
<path fill="none" stroke="#000000" d="M240,-229.5C240,-197.9437 281.0535,-215.9562 299,-190 318.0867,-162.3946 318.1981,-148.5329 318.0379,-118.7624"/>
<polygon fill="#000000" stroke="#000000" points="321.537,-118.487 318,-108.5 314.537,-118.5129 321.537,-118.487"/>
</g>
<!-- a13&#45;&gt;a14 -->
<g id="edge26" class="edge">
<title>a13:out0&#45;&gt;a14:inp1</title>
<path fill="none" stroke="#000000" d="M598,-232.5C578.2739,-232.5 592.1067,-199.4922 584.9652,-187.1143"/>
<polygon fill="#000000" stroke="#000000" points="586.4932,-183.9643 576,-182.5 583.2897,-190.1883 586.4932,-183.9643"/>
</g>
<!-- a14&#45;&gt;a15 -->
<g id="edge28" class="edge">
<title>a14:out0&#45;&gt;a15:inp1</title>
<path fill="none" stroke="#000000" d="M536,-155.5C495.894,-155.5 405.6012,-112.4654 358.2417,-106.2456"/>
<polygon fill="#000000" stroke="#000000" points="358.2278,-102.7354 348,-105.5 357.7194,-109.7169 358.2278,-102.7354"/>
</g>
<!-- a15&#45;&gt;a16 -->
<g id="edge32" class="edge">
<title>a15:out0&#45;&gt;a16:inp3</title>
<path fill="none" stroke="#000000" d="M308,-78.5C283.8511,-78.5 293.1139,-41.8795 278.8841,-31.0078"/>
<polygon fill="#000000" stroke="#000000" points="279.5858,-27.5629 269,-28 277.5479,-34.2597 279.5858,-27.5629"/>
</g>
</g>
</svg>
