<?xml version="1.0" encoding="UTF-8" standalone="no"?>
<!DOCTYPE svg PUBLIC "-//W3C//DTD SVG 1.1//EN"
 "http://www.w3.org/Graphics/SVG/1.1/DTD/svg11.dtd">
<!-- Generated by graphviz version 2.40.1 (20161225.0304)
 -->
<!-- Title: callgraph Pages: 1 -->
<svg width="800pt" height="501pt"
 viewBox="0.00 0.00 800.00 501.00" xmlns="http://www.w3.org/2000/svg" xmlns:xlink="http://www.w3.org/1999/xlink">
<g id="graph0" class="graph" transform="scale(1 1) rotate(0) translate(4 497)">
<title>callgraph</title>
<polygon fill="#ffffff" stroke="transparent" points="-4,4 -4,-497 796,-497 796,4 -4,4"/>
<!-- a0 -->
<g id="node1" class="node">
<title>a0</title>
<polygon fill="none" stroke="#000000" points="281,-467 281,-488 441,-488 441,-467 281,-467"/>
<text text-anchor="start" x="347" y="-473.8" font-family="Times,serif" font-size="14.00" fill="#000000">input</text>
<polygon fill="#cccccc" stroke="transparent" points="281,-461 281,-467 301,-467 301,-461 281,-461"/>
<polygon fill="none" stroke="#000000" points="281,-461 281,-467 301,-467 301,-461 281,-461"/>
<polygon fill="#cccccc" stroke="transparent" points="301,-461 301,-467 321,-467 321,-461 301,-461"/>
<polygon fill="none" stroke="#000000" points="301,-461 301,-467 321,-467 321,-461 301,-461"/>
<polygon fill="#cccccc" stroke="transparent" points="321,-461 321,-467 341,-467 341,-461 321,-461"/>
<polygon fill="none" stroke="#000000" points="321,-461 321,-467 341,-467 341,-461 321,-461"/>
<polygon fill="#cccccc" stroke="transparent" points="341,-461 341,-467 361,-467 361,-461 341,-461"/>
<polygon fill="none" stroke="#000000" points="341,-461 341,-467 361,-467 361,-461 341,-461"/>
<polygon fill="#cccccc" stroke="transparent" points="361,-461 361,-467 381,-467 381,-461 361,-461"/>
<polygon fill="none" stroke="#000000" points="361,-461 361,-467 381,-467 381,-461 361,-461"/>
<polygon fill="#cccccc" stroke="transparent" points="381,-461 381,-467 401,-467 401,-461 381,-461"/>
<polygon fill="none" stroke="#000000" points="381,-461 381,-467 401,-467 401,-461 381,-461"/>
<polygon fill="#cccccc" stroke="transparent" points="401,-461 401,-467 421,-467 421,-461 401,-461"/>
<polygon fill="none" stroke="#000000" points="401,-461 401,-467 421,-467 421,-461 401,-461"/>
<polygon fill="#cccccc" stroke="transparent" points="421,-461 421,-467 441,-467 441,-461 421,-461"/>
<polygon fill="none" stroke="#000000" points="421,-461 421,-467 441,-467 441,-461 421,-461"/>
</g>
<!-- a1 -->
<g id="node2" class="node">
<title>a1</title>
<polygon fill="#cccccc" stroke="transparent" points="82,-410.5 82,-416.5 102,-416.5 102,-410.5 82,-410.5"/>
<polygon fill="none" stroke="#000000" points="82,-410.5 82,-416.5 102,-416.5 102,-410.5 82,-410.5"/>
<polygon fill="#cccccc" stroke="transparent" points="102,-410.5 102,-416.5 122,-416.5 122,-410.5 102,-410.5"/>
<polygon fill="none" stroke="#000000" points="102,-410.5 102,-416.5 122,-416.5 122,-410.5 102,-410.5"/>
<polygon fill="none" stroke="#000000" points="82,-389.5 82,-410.5 122,-410.5 122,-389.5 82,-389.5"/>
<text text-anchor="start" x="97.5" y="-396.3" font-family="Times,serif" font-size="14.00" fill="#000000">+</text>
<polygon fill="#cccccc" stroke="transparent" points="82,-383.5 82,-389.5 102,-389.5 102,-383.5 82,-383.5"/>
<polygon fill="none" stroke="#000000" points="82,-383.5 82,-389.5 102,-389.5 102,-383.5 82,-383.5"/>
</g>
<!-- a0&#45;&gt;a1 -->
<g id="edge1" class="edge">
<title>a0:out0&#45;&gt;a1:inp0</title>
<path fill="none" stroke="#000000" d="M281,-464C241.2463,-464 115.2139,-460.466 94.8042,-426.3871"/>
<polygon fill="#000000" stroke="#000000" points="98.0959,-425.1655 92,-416.5 91.3615,-427.0756 98.0959,-425.1655"/>
</g>
<!-- a0&#45;&gt;a1 -->
<g id="edge2" class="edge">
<title>a0:out4&#45;&gt;a1:inp1</title>
<path fill="none" stroke="#000000" d="M371,-461C371,-408.6838 189.0849,-436.116 139,-421 135.5411,-419.9561 133.4355,-418.3901 131.4696,-416.9586"/>
<polygon fill="#000000" stroke="#000000" points="132.5939,-413.6431 122,-413.5 130.1924,-420.2183 132.5939,-413.6431"/>
</g>
<!-- a2 -->
<g id="node3" class="node">
<title>a2</title>
<polygon fill="#cccccc" stroke="transparent" points="156,-410.5 156,-416.5 176,-416.5 176,-410.5 156,-410.5"/>
<polygon fill="none" stroke="#000000" points="156,-410.5 156,-416.5 176,-416.5 176,-410.5 156,-410.5"/>
<polygon fill="#cccccc" stroke="transparent" points="176,-410.5 176,-416.5 196,-416.5 196,-410.5 176,-410.5"/>
<polygon fill="none" stroke="#000000" points="176,-410.5 176,-416.5 196,-416.5 196,-410.5 176,-410.5"/>
<polygon fill="none" stroke="#000000" points="156,-389.5 156,-410.5 196,-410.5 196,-389.5 156,-389.5"/>
<text text-anchor="start" x="171.5" y="-396.3" font-family="Times,serif" font-size="14.00" fill="#000000">+</text>
<polygon fill="#cccccc" stroke="transparent" points="156,-383.5 156,-389.5 176,-389.5 176,-383.5 156,-383.5"/>
<polygon fill="none" stroke="#000000" points="156,-383.5 156,-389.5 176,-389.5 176,-383.5 156,-383.5"/>
</g>
<!-- a0&#45;&gt;a2 -->
<g id="edge3" class="edge">
<title>a0:out2&#45;&gt;a2:inp0</title>
<path fill="none" stroke="#000000" d="M331,-461C331,-388.9035 182.3323,-482.0178 167.2333,-426.7006"/>
<polygon fill="#000000" stroke="#000000" points="170.6751,-426.0076 166,-416.5 163.7257,-426.8478 170.6751,-426.0076"/>
</g>
<!-- a0&#45;&gt;a2 -->
<g id="edge4" class="edge">
<title>a0:out6&#45;&gt;a2:inp1</title>
<path fill="none" stroke="#000000" d="M411,-461C411,-416.1111 255.7845,-434.5832 213,-421 209.5564,-419.9067 207.4527,-418.3345 205.4841,-416.9117"/>
<polygon fill="#000000" stroke="#000000" points="206.5944,-413.5916 196,-413.5 204.2249,-420.1784 206.5944,-413.5916"/>
</g>
<!-- a4 -->
<g id="node5" class="node">
<title>a4</title>
<polygon fill="#cccccc" stroke="transparent" points="230,-410.5 230,-416.5 250,-416.5 250,-410.5 230,-410.5"/>
<polygon fill="none" stroke="#000000" points="230,-410.5 230,-416.5 250,-416.5 250,-410.5 230,-410.5"/>
<polygon fill="#cccccc" stroke="transparent" points="250,-410.5 250,-416.5 270,-416.5 270,-410.5 250,-410.5"/>
<polygon fill="none" stroke="#000000" points="250,-410.5 250,-416.5 270,-416.5 270,-410.5 250,-410.5"/>
<polygon fill="none" stroke="#000000" points="230,-389.5 230,-410.5 270,-410.5 270,-389.5 230,-389.5"/>
<text text-anchor="start" x="245.5" y="-396.3" font-family="Times,serif" font-size="14.00" fill="#000000">+</text>
<polygon fill="#cccccc" stroke="transparent" points="230,-383.5 230,-389.5 250,-389.5 250,-383.5 230,-383.5"/>
<polygon fill="none" stroke="#000000" points="230,-383.5 230,-389.5 250,-389.5 250,-383.5 230,-383.5"/>
</g>
<!-- a0&#45;&gt;a4 -->
<g id="edge7" class="edge">
<title>a0:out1&#45;&gt;a4:inp0</title>
<path fill="none" stroke="#000000" d="M311,-461C311,-427.832 254.6819,-447.9868 242.3623,-426.4831"/>
<polygon fill="#000000" stroke="#000000" points="245.7087,-425.4253 240,-416.5 238.8968,-427.0372 245.7087,-425.4253"/>
</g>
<!-- a0&#45;&gt;a4 -->
<g id="edge8" class="edge">
<title>a0:out5&#45;&gt;a4:inp1</title>
<path fill="none" stroke="#000000" d="M391,-461C391,-411.4768 332.7793,-439.8892 287,-421 283.6602,-419.6219 281.5695,-418.0141 279.5826,-416.6414"/>
<polygon fill="#000000" stroke="#000000" points="280.5927,-413.2893 270,-413.5 278.4121,-419.941 280.5927,-413.2893"/>
</g>
<!-- a5 -->
<g id="node6" class="node">
<title>a5</title>
<polygon fill="#cccccc" stroke="transparent" points="304,-410.5 304,-416.5 324,-416.5 324,-410.5 304,-410.5"/>
<polygon fill="none" stroke="#000000" points="304,-410.5 304,-416.5 324,-416.5 324,-410.5 304,-410.5"/>
<polygon fill="#cccccc" stroke="transparent" points="324,-410.5 324,-416.5 344,-416.5 344,-410.5 324,-410.5"/>
<polygon fill="none" stroke="#000000" points="324,-410.5 324,-416.5 344,-416.5 344,-410.5 324,-410.5"/>
<polygon fill="none" stroke="#000000" points="304,-389.5 304,-410.5 344,-410.5 344,-389.5 304,-389.5"/>
<text text-anchor="start" x="319.5" y="-396.3" font-family="Times,serif" font-size="14.00" fill="#000000">+</text>
<polygon fill="#cccccc" stroke="transparent" points="304,-383.5 304,-389.5 324,-389.5 324,-383.5 304,-383.5"/>
<polygon fill="none" stroke="#000000" points="304,-383.5 304,-389.5 324,-389.5 324,-383.5 304,-383.5"/>
</g>
<!-- a0&#45;&gt;a5 -->
<g id="edge9" class="edge">
<title>a0:out3&#45;&gt;a5:inp0</title>
<path fill="none" stroke="#000000" d="M351,-461C351,-439.2977 324.6592,-440.8492 316.4277,-426.4137"/>
<polygon fill="#000000" stroke="#000000" points="319.7782,-425.3805 314,-416.5 312.9791,-427.0455 319.7782,-425.3805"/>
</g>
<!-- a0&#45;&gt;a5 -->
<g id="edge10" class="edge">
<title>a0:out7&#45;&gt;a5:inp1</title>
<path fill="none" stroke="#000000" d="M431,-461C431,-458.7736 375.9176,-429.0911 353.3757,-417.8098"/>
<polygon fill="#000000" stroke="#000000" points="354.5479,-414.4966 344,-413.5 351.6242,-420.8568 354.5479,-414.4966"/>
</g>
<!-- a8 -->
<g id="node9" class="node">
<title>a8</title>
<polygon fill="#cccccc" stroke="transparent" points="378,-410.5 378,-416.5 398,-416.5 398,-410.5 378,-410.5"/>
<polygon fill="none" stroke="#000000" points="378,-410.5 378,-416.5 398,-416.5 398,-410.5 378,-410.5"/>
<polygon fill="#cccccc" stroke="transparent" points="398,-410.5 398,-416.5 418,-416.5 418,-410.5 398,-410.5"/>
<polygon fill="none" stroke="#000000" points="398,-410.5 398,-416.5 418,-416.5 418,-410.5 398,-410.5"/>
<polygon fill="none" stroke="#000000" points="378,-389.5 378,-410.5 418,-410.5 418,-389.5 378,-389.5"/>
<text text-anchor="start" x="395.5" y="-396.3" font-family="Times,serif" font-size="14.00" fill="#000000">&#45;</text>
<polygon fill="#cccccc" stroke="transparent" points="378,-383.5 378,-389.5 398,-389.5 398,-383.5 378,-383.5"/>
<polygon fill="none" stroke="#000000" points="378,-383.5 378,-389.5 398,-389.5 398,-383.5 378,-383.5"/>
</g>
<!-- a0&#45;&gt;a8 -->
<g id="edge15" class="edge">
<title>a0:out0&#45;&gt;a8:inp0</title>
<path fill="none" stroke="#000000" d="M291,-461C291,-458.7736 346.0824,-429.0911 368.6243,-417.8098"/>
<polygon fill="#000000" stroke="#000000" points="370.3758,-420.8568 378,-413.5 367.4521,-414.4966 370.3758,-420.8568"/>
</g>
<!-- a0&#45;&gt;a8 -->
<g id="edge16" class="edge">
<title>a0:out4&#45;&gt;a8:inp1</title>
<path fill="none" stroke="#000000" d="M371,-461C371,-439.2977 397.3408,-440.8492 405.5723,-426.4137"/>
<polygon fill="#000000" stroke="#000000" points="409.0209,-427.0455 408,-416.5 402.2218,-425.3805 409.0209,-427.0455"/>
</g>
<!-- a10 -->
<g id="node11" class="node">
<title>a10</title>
<polygon fill="#cccccc" stroke="transparent" points="490,-410.5 490,-416.5 510,-416.5 510,-410.5 490,-410.5"/>
<polygon fill="none" stroke="#000000" points="490,-410.5 490,-416.5 510,-416.5 510,-410.5 490,-410.5"/>
<polygon fill="#cccccc" stroke="transparent" points="510,-410.5 510,-416.5 530,-416.5 530,-410.5 510,-410.5"/>
<polygon fill="none" stroke="#000000" points="510,-410.5 510,-416.5 530,-416.5 530,-410.5 510,-410.5"/>
<polygon fill="none" stroke="#000000" points="490,-389.5 490,-410.5 530,-410.5 530,-389.5 490,-389.5"/>
<text text-anchor="start" x="507.5" y="-396.3" font-family="Times,serif" font-size="14.00" fill="#000000">&#45;</text>
<polygon fill="#cccccc" stroke="transparent" points="490,-383.5 490,-389.5 510,-389.5 510,-383.5 490,-383.5"/>
<polygon fill="none" stroke="#000000" points="490,-383.5 490,-389.5 510,-389.5 510,-383.5 490,-383.5"/>
</g>
<!-- a0&#45;&gt;a10 -->
<g id="edge17" class="edge">
<title>a0:out2&#45;&gt;a10:inp0</title>
<path fill="none" stroke="#000000" d="M331,-461C331,-397.5689 407.5215,-440.1274 468,-421 473.5403,-419.2478 476.5401,-417.0938 479.9431,-415.5444"/>
<polygon fill="#000000" stroke="#000000" points="480.8977,-418.922 490,-413.5 479.5032,-412.0623 480.8977,-418.922"/>
</g>
<!-- a0&#45;&gt;a10 -->
<g id="edge18" class="edge">
<title>a0:out6&#45;&gt;a10:inp1</title>
<path fill="none" stroke="#000000" d="M411,-461C411,-412.5574 504.4207,-460.5169 518.2879,-426.384"/>
<polygon fill="#000000" stroke="#000000" points="521.7418,-426.9507 520,-416.5 514.8445,-425.7559 521.7418,-426.9507"/>
</g>
<!-- a14 -->
<g id="node15" class="node">
<title>a14</title>
<polygon fill="#cccccc" stroke="transparent" points="571,-333.5 571,-339.5 591,-339.5 591,-333.5 571,-333.5"/>
<polygon fill="none" stroke="#000000" points="571,-333.5 571,-339.5 591,-339.5 591,-333.5 571,-333.5"/>
<polygon fill="#cccccc" stroke="transparent" points="591,-333.5 591,-339.5 611,-339.5 611,-333.5 591,-333.5"/>
<polygon fill="none" stroke="#000000" points="591,-333.5 591,-339.5 611,-339.5 611,-333.5 591,-333.5"/>
<polygon fill="none" stroke="#000000" points="571,-312.5 571,-333.5 611,-333.5 611,-312.5 571,-312.5"/>
<text text-anchor="start" x="588.5" y="-319.3" font-family="Times,serif" font-size="14.00" fill="#000000">&#45;</text>
<polygon fill="#cccccc" stroke="transparent" points="571,-306.5 571,-312.5 591,-312.5 591,-306.5 571,-306.5"/>
<polygon fill="none" stroke="#000000" points="571,-306.5 571,-312.5 591,-312.5 591,-306.5 571,-306.5"/>
</g>
<!-- a0&#45;&gt;a14 -->
<g id="edge23" class="edge">
<title>a0:out1&#45;&gt;a14:inp0</title>
<path fill="none" stroke="#000000" d="M311,-461C311,-403.0925 386.1758,-452.1365 435,-421 455.948,-407.6409 452.787,-394.4471 473,-380 508.8915,-354.3467 521.4781,-338.9095 560.9599,-336.7594"/>
<polygon fill="#000000" stroke="#000000" points="561.0938,-340.2572 571,-336.5 560.9129,-333.2595 561.0938,-340.2572"/>
</g>
<!-- a0&#45;&gt;a14 -->
<g id="edge24" class="edge">
<title>a0:out5&#45;&gt;a14:inp1</title>
<path fill="none" stroke="#000000" d="M391,-461C391,-389.4237 488.6757,-462.4902 547,-421 562.3522,-410.0789 591.6867,-373.1481 599.2079,-349.3627"/>
<polygon fill="#000000" stroke="#000000" points="602.6557,-349.9647 601,-339.5 595.7685,-348.7131 602.6557,-349.9647"/>
</g>
<!-- a16 -->
<g id="node17" class="node">
<title>a16</title>
<polygon fill="#cccccc" stroke="transparent" points="674,-410.5 674,-416.5 694,-416.5 694,-410.5 674,-410.5"/>
<polygon fill="none" stroke="#000000" points="674,-410.5 674,-416.5 694,-416.5 694,-410.5 674,-410.5"/>
<polygon fill="#cccccc" stroke="transparent" points="694,-410.5 694,-416.5 714,-416.5 714,-410.5 694,-410.5"/>
<polygon fill="none" stroke="#000000" points="694,-410.5 694,-416.5 714,-416.5 714,-410.5 694,-410.5"/>
<polygon fill="none" stroke="#000000" points="674,-389.5 674,-410.5 714,-410.5 714,-389.5 674,-389.5"/>
<text text-anchor="start" x="691.5" y="-396.3" font-family="Times,serif" font-size="14.00" fill="#000000">&#45;</text>
<polygon fill="#cccccc" stroke="transparent" points="674,-383.5 674,-389.5 694,-389.5 694,-383.5 674,-383.5"/>
<polygon fill="none" stroke="#000000" points="674,-383.5 674,-389.5 694,-389.5 694,-383.5 674,-383.5"/>
</g>
<!-- a0&#45;&gt;a16 -->
<g id="edge25" class="edge">
<title>a0:out3&#45;&gt;a16:inp0</title>
<path fill="none" stroke="#000000" d="M351,-461C351,-392.4215 590.9563,-439.4729 657,-421 660.4794,-420.0268 662.5876,-418.4696 664.5499,-417.0257"/>
<polygon fill="#000000" stroke="#000000" points="665.8542,-420.2748 674,-413.5 663.4074,-413.7163 665.8542,-420.2748"/>
</g>
<!-- a0&#45;&gt;a16 -->
<g id="edge26" class="edge">
<title>a0:out7&#45;&gt;a16:inp1</title>
<path fill="none" stroke="#000000" d="M441,-464C467.7951,-464 660.3744,-449.5027 697.732,-424.854"/>
<polygon fill="#000000" stroke="#000000" points="700.798,-426.5994 704,-416.5 695.1988,-422.3983 700.798,-426.5994"/>
</g>
<!-- a3 -->
<g id="node4" class="node">
<title>a3</title>
<polygon fill="#cccccc" stroke="transparent" points="8,-333.5 8,-339.5 28,-339.5 28,-333.5 8,-333.5"/>
<polygon fill="none" stroke="#000000" points="8,-333.5 8,-339.5 28,-339.5 28,-333.5 8,-333.5"/>
<polygon fill="#cccccc" stroke="transparent" points="28,-333.5 28,-339.5 48,-339.5 48,-333.5 28,-333.5"/>
<polygon fill="none" stroke="#000000" points="28,-333.5 28,-339.5 48,-339.5 48,-333.5 28,-333.5"/>
<polygon fill="none" stroke="#000000" points="8,-312.5 8,-333.5 48,-333.5 48,-312.5 8,-312.5"/>
<text text-anchor="start" x="23.5" y="-319.3" font-family="Times,serif" font-size="14.00" fill="#000000">+</text>
<polygon fill="#cccccc" stroke="transparent" points="8,-306.5 8,-312.5 28,-312.5 28,-306.5 8,-306.5"/>
<polygon fill="none" stroke="#000000" points="8,-306.5 8,-312.5 28,-312.5 28,-306.5 8,-306.5"/>
</g>
<!-- a1&#45;&gt;a3 -->
<g id="edge5" class="edge">
<title>a1:out0&#45;&gt;a3:inp0</title>
<path fill="none" stroke="#000000" d="M82,-386.5C50.2935,-386.5 23.8995,-377.0484 18.8652,-349.5353"/>
<polygon fill="#000000" stroke="#000000" points="22.3461,-349.1624 18,-339.5 15.372,-349.7637 22.3461,-349.1624"/>
</g>
<!-- a21 -->
<g id="node22" class="node">
<title>a21</title>
<polygon fill="#cccccc" stroke="transparent" points="82,-333.5 82,-339.5 102,-339.5 102,-333.5 82,-333.5"/>
<polygon fill="none" stroke="#000000" points="82,-333.5 82,-339.5 102,-339.5 102,-333.5 82,-333.5"/>
<polygon fill="#cccccc" stroke="transparent" points="102,-333.5 102,-339.5 122,-339.5 122,-333.5 102,-333.5"/>
<polygon fill="none" stroke="#000000" points="102,-333.5 102,-339.5 122,-339.5 122,-333.5 102,-333.5"/>
<polygon fill="none" stroke="#000000" points="82,-312.5 82,-333.5 122,-333.5 122,-312.5 82,-312.5"/>
<text text-anchor="start" x="99.5" y="-319.3" font-family="Times,serif" font-size="14.00" fill="#000000">&#45;</text>
<polygon fill="#cccccc" stroke="transparent" points="82,-306.5 82,-312.5 102,-312.5 102,-306.5 82,-306.5"/>
<polygon fill="none" stroke="#000000" points="82,-306.5 82,-312.5 102,-312.5 102,-306.5 82,-306.5"/>
</g>
<!-- a1&#45;&gt;a21 -->
<g id="edge35" class="edge">
<title>a1:out0&#45;&gt;a21:inp0</title>
<path fill="none" stroke="#000000" d="M92,-383.5C92,-367.9167 92,-361.6468 92,-349.8471"/>
<polygon fill="#000000" stroke="#000000" points="95.5001,-349.5 92,-339.5 88.5001,-349.5 95.5001,-349.5"/>
</g>
<!-- a2&#45;&gt;a3 -->
<g id="edge6" class="edge">
<title>a2:out0&#45;&gt;a3:inp1</title>
<path fill="none" stroke="#000000" d="M156,-386.5C154.6376,-386.5 83.2756,-352.5332 57.304,-340.5917"/>
<polygon fill="#000000" stroke="#000000" points="58.5629,-337.3219 48,-336.5 55.7449,-343.7296 58.5629,-337.3219"/>
</g>
<!-- a2&#45;&gt;a21 -->
<g id="edge36" class="edge">
<title>a2:out0&#45;&gt;a21:inp1</title>
<path fill="none" stroke="#000000" d="M156,-386.5C133.3257,-386.5 143.8407,-350.9043 131.538,-339.7806"/>
<polygon fill="#000000" stroke="#000000" points="132.5947,-336.4429 122,-336.5 130.3179,-343.0623 132.5947,-336.4429"/>
</g>
<!-- a7 -->
<g id="node8" class="node">
<title>a7</title>
<polygon fill="#cccccc" stroke="transparent" points="52,-256.5 52,-262.5 72,-262.5 72,-256.5 52,-256.5"/>
<polygon fill="none" stroke="#000000" points="52,-256.5 52,-262.5 72,-262.5 72,-256.5 52,-256.5"/>
<polygon fill="#cccccc" stroke="transparent" points="72,-256.5 72,-262.5 92,-262.5 92,-256.5 72,-256.5"/>
<polygon fill="none" stroke="#000000" points="72,-256.5 72,-262.5 92,-262.5 92,-256.5 72,-256.5"/>
<polygon fill="none" stroke="#000000" points="52,-235.5 52,-256.5 92,-256.5 92,-235.5 52,-235.5"/>
<text text-anchor="start" x="67.5" y="-242.3" font-family="Times,serif" font-size="14.00" fill="#000000">+</text>
<polygon fill="#cccccc" stroke="transparent" points="52,-229.5 52,-235.5 72,-235.5 72,-229.5 52,-229.5"/>
<polygon fill="none" stroke="#000000" points="52,-229.5 52,-235.5 72,-235.5 72,-229.5 52,-229.5"/>
</g>
<!-- a3&#45;&gt;a7 -->
<g id="edge13" class="edge">
<title>a3:out0&#45;&gt;a7:inp0</title>
<path fill="none" stroke="#000000" d="M18,-306.5C18,-284.5453 23.9596,-265.8998 41.6495,-260.8481"/>
<polygon fill="#000000" stroke="#000000" points="42.5358,-264.2623 52,-259.5 41.6317,-257.3209 42.5358,-264.2623"/>
</g>
<!-- a31 -->
<g id="node32" class="node">
<title>a31</title>
<polygon fill="#cccccc" stroke="transparent" points="126,-256.5 126,-262.5 146,-262.5 146,-256.5 126,-256.5"/>
<polygon fill="none" stroke="#000000" points="126,-256.5 126,-262.5 146,-262.5 146,-256.5 126,-256.5"/>
<polygon fill="#cccccc" stroke="transparent" points="146,-256.5 146,-262.5 166,-262.5 166,-256.5 146,-256.5"/>
<polygon fill="none" stroke="#000000" points="146,-256.5 146,-262.5 166,-262.5 166,-256.5 146,-256.5"/>
<polygon fill="none" stroke="#000000" points="126,-235.5 126,-256.5 166,-256.5 166,-235.5 126,-235.5"/>
<text text-anchor="start" x="143.5" y="-242.3" font-family="Times,serif" font-size="14.00" fill="#000000">&#45;</text>
<polygon fill="#cccccc" stroke="transparent" points="126,-229.5 126,-235.5 146,-235.5 146,-229.5 126,-229.5"/>
<polygon fill="none" stroke="#000000" points="126,-229.5 126,-235.5 146,-235.5 146,-229.5 126,-229.5"/>
</g>
<!-- a3&#45;&gt;a31 -->
<g id="edge51" class="edge">
<title>a3:out0&#45;&gt;a31:inp0</title>
<path fill="none" stroke="#000000" d="M18,-306.5C18,-262.4097 68.6081,-284.6762 109,-267 112.3099,-265.5515 114.3969,-263.9349 116.389,-262.5746"/>
<polygon fill="#000000" stroke="#000000" points="117.5419,-265.8805 126,-259.5 115.409,-259.2134 117.5419,-265.8805"/>
</g>
<!-- a6 -->
<g id="node7" class="node">
<title>a6</title>
<polygon fill="#cccccc" stroke="transparent" points="156,-333.5 156,-339.5 176,-339.5 176,-333.5 156,-333.5"/>
<polygon fill="none" stroke="#000000" points="156,-333.5 156,-339.5 176,-339.5 176,-333.5 156,-333.5"/>
<polygon fill="#cccccc" stroke="transparent" points="176,-333.5 176,-339.5 196,-339.5 196,-333.5 176,-333.5"/>
<polygon fill="none" stroke="#000000" points="176,-333.5 176,-339.5 196,-339.5 196,-333.5 176,-333.5"/>
<polygon fill="none" stroke="#000000" points="156,-312.5 156,-333.5 196,-333.5 196,-312.5 156,-312.5"/>
<text text-anchor="start" x="171.5" y="-319.3" font-family="Times,serif" font-size="14.00" fill="#000000">+</text>
<polygon fill="#cccccc" stroke="transparent" points="156,-306.5 156,-312.5 176,-312.5 176,-306.5 156,-306.5"/>
<polygon fill="none" stroke="#000000" points="156,-306.5 156,-312.5 176,-312.5 176,-306.5 156,-306.5"/>
</g>
<!-- a4&#45;&gt;a6 -->
<g id="edge11" class="edge">
<title>a4:out0&#45;&gt;a6:inp0</title>
<path fill="none" stroke="#000000" d="M230,-386.5C222.9694,-386.5 186.5032,-362.257 171.9789,-347.9438"/>
<polygon fill="#000000" stroke="#000000" points="174.6353,-345.6387 166,-339.5 168.9224,-349.6838 174.6353,-345.6387"/>
</g>
<!-- a23 -->
<g id="node24" class="node">
<title>a23</title>
<polygon fill="#cccccc" stroke="transparent" points="302,-333.5 302,-339.5 322,-339.5 322,-333.5 302,-333.5"/>
<polygon fill="none" stroke="#000000" points="302,-333.5 302,-339.5 322,-339.5 322,-333.5 302,-333.5"/>
<polygon fill="#cccccc" stroke="transparent" points="322,-333.5 322,-339.5 342,-339.5 342,-333.5 322,-333.5"/>
<polygon fill="none" stroke="#000000" points="322,-333.5 322,-339.5 342,-339.5 342,-333.5 322,-333.5"/>
<polygon fill="none" stroke="#000000" points="302,-312.5 302,-333.5 342,-333.5 342,-312.5 302,-312.5"/>
<text text-anchor="start" x="319.5" y="-319.3" font-family="Times,serif" font-size="14.00" fill="#000000">&#45;</text>
<polygon fill="#cccccc" stroke="transparent" points="302,-306.5 302,-312.5 322,-312.5 322,-306.5 302,-306.5"/>
<polygon fill="none" stroke="#000000" points="302,-306.5 302,-312.5 322,-312.5 322,-306.5 302,-306.5"/>
</g>
<!-- a4&#45;&gt;a23 -->
<g id="edge37" class="edge">
<title>a4:out0&#45;&gt;a23:inp0</title>
<path fill="none" stroke="#000000" d="M240,-383.5C240,-376.5438 274.5488,-350.3492 292.5487,-340.3823"/>
<polygon fill="#000000" stroke="#000000" points="294.0799,-343.5372 302,-336.5 291.4201,-337.0622 294.0799,-343.5372"/>
</g>
<!-- a5&#45;&gt;a6 -->
<g id="edge12" class="edge">
<title>a5:out0&#45;&gt;a6:inp1</title>
<path fill="none" stroke="#000000" d="M304,-386.5C302.6376,-386.5 231.2756,-352.5332 205.304,-340.5917"/>
<polygon fill="#000000" stroke="#000000" points="206.5629,-337.3219 196,-336.5 203.7449,-343.7296 206.5629,-337.3219"/>
</g>
<!-- a5&#45;&gt;a23 -->
<g id="edge38" class="edge">
<title>a5:out0&#45;&gt;a23:inp1</title>
<path fill="none" stroke="#000000" d="M314,-383.5C314,-366.333 325.8828,-361.9637 330.3389,-349.5958"/>
<polygon fill="#000000" stroke="#000000" points="333.8299,-349.9356 332,-339.5 326.9228,-348.7991 333.8299,-349.9356"/>
</g>
<!-- a6&#45;&gt;a7 -->
<g id="edge14" class="edge">
<title>a6:out0&#45;&gt;a7:inp1</title>
<path fill="none" stroke="#000000" d="M156,-309.5C140.913,-309.5 118.9387,-274.5604 101.5918,-263.0959"/>
<polygon fill="#000000" stroke="#000000" points="102.5923,-259.7331 92,-259.5 100.135,-266.2877 102.5923,-259.7331"/>
</g>
<!-- a6&#45;&gt;a31 -->
<g id="edge52" class="edge">
<title>a6:out0&#45;&gt;a31:inp1</title>
<path fill="none" stroke="#000000" d="M166,-306.5C166,-290.3626 159.5248,-284.6909 156.9954,-272.6417"/>
<polygon fill="#000000" stroke="#000000" points="160.4601,-272.1103 156,-262.5 153.4936,-272.7941 160.4601,-272.1103"/>
</g>
<!-- a35 -->
<g id="node36" class="node">
<title>a35</title>
<polygon fill="#cccccc" stroke="transparent" points="226,-25 226,-31 246,-31 246,-25 226,-25"/>
<polygon fill="none" stroke="#000000" points="226,-25 226,-31 246,-31 246,-25 226,-25"/>
<polygon fill="#cccccc" stroke="transparent" points="246,-25 246,-31 266,-31 266,-25 246,-25"/>
<polygon fill="none" stroke="#000000" points="246,-25 246,-31 266,-31 266,-25 246,-25"/>
<polygon fill="#cccccc" stroke="transparent" points="266,-25 266,-31 286,-31 286,-25 266,-25"/>
<polygon fill="none" stroke="#000000" points="266,-25 266,-31 286,-31 286,-25 266,-25"/>
<polygon fill="#cccccc" stroke="transparent" points="286,-25 286,-31 306,-31 306,-25 286,-25"/>
<polygon fill="none" stroke="#000000" points="286,-25 286,-31 306,-31 306,-25 286,-25"/>
<polygon fill="#cccccc" stroke="transparent" points="306,-25 306,-31 326,-31 326,-25 306,-25"/>
<polygon fill="none" stroke="#000000" points="306,-25 306,-31 326,-31 326,-25 306,-25"/>
<polygon fill="#cccccc" stroke="transparent" points="326,-25 326,-31 346,-31 346,-25 326,-25"/>
<polygon fill="none" stroke="#000000" points="326,-25 326,-31 346,-31 346,-25 326,-25"/>
<polygon fill="#cccccc" stroke="transparent" points="346,-25 346,-31 366,-31 366,-25 346,-25"/>
<polygon fill="none" stroke="#000000" points="346,-25 346,-31 366,-31 366,-25 346,-25"/>
<polygon fill="#cccccc" stroke="transparent" points="366,-25 366,-31 386,-31 386,-25 366,-25"/>
<polygon fill="none" stroke="#000000" points="366,-25 366,-31 386,-31 386,-25 366,-25"/>
<polygon fill="none" stroke="#000000" points="226,-4 226,-25 386,-25 386,-4 226,-4"/>
<text text-anchor="start" x="288.5" y="-10.8" font-family="Times,serif" font-size="14.00" fill="#000000">output</text>
</g>
<!-- a7&#45;&gt;a35 -->
<g id="edge59" class="edge">
<title>a7:out0&#45;&gt;a35:inp0</title>
<path fill="none" stroke="#000000" d="M62,-229.5C62,-117.5271 107.6375,-33.2359 215.6966,-28.235"/>
<polygon fill="#000000" stroke="#000000" points="216.0824,-31.7272 226,-28 215.9228,-24.729 216.0824,-31.7272"/>
</g>
<!-- a12 -->
<g id="node13" class="node">
<title>a12</title>
<polygon fill="#cccccc" stroke="transparent" points="370,-179.5 370,-185.5 390,-185.5 390,-179.5 370,-179.5"/>
<polygon fill="none" stroke="#000000" points="370,-179.5 370,-185.5 390,-185.5 390,-179.5 370,-179.5"/>
<polygon fill="#cccccc" stroke="transparent" points="390,-179.5 390,-185.5 410,-185.5 410,-179.5 390,-179.5"/>
<polygon fill="none" stroke="#000000" points="390,-179.5 390,-185.5 410,-185.5 410,-179.5 390,-179.5"/>
<polygon fill="none" stroke="#000000" points="370,-158.5 370,-179.5 410,-179.5 410,-158.5 370,-158.5"/>
<text text-anchor="start" x="385.5" y="-165.3" font-family="Times,serif" font-size="14.00" fill="#000000">+</text>
<polygon fill="#cccccc" stroke="transparent" points="370,-152.5 370,-158.5 390,-158.5 390,-152.5 370,-152.5"/>
<polygon fill="none" stroke="#000000" points="370,-152.5 370,-158.5 390,-158.5 390,-152.5 370,-152.5"/>
</g>
<!-- a8&#45;&gt;a12 -->
<g id="edge21" class="edge">
<title>a8:out0&#45;&gt;a12:inp0</title>
<path fill="none" stroke="#000000" d="M388,-383.5C388,-298.8685 380.6128,-275.3804 380.0357,-195.5257"/>
<polygon fill="#000000" stroke="#000000" points="383.5357,-195.4875 380,-185.5 376.5357,-195.5124 383.5357,-195.4875"/>
</g>
<!-- a26 -->
<g id="node27" class="node">
<title>a26</title>
<polygon fill="#cccccc" stroke="transparent" points="445,-179.5 445,-185.5 465,-185.5 465,-179.5 445,-179.5"/>
<polygon fill="none" stroke="#000000" points="445,-179.5 445,-185.5 465,-185.5 465,-179.5 445,-179.5"/>
<polygon fill="#cccccc" stroke="transparent" points="465,-179.5 465,-185.5 485,-185.5 485,-179.5 465,-179.5"/>
<polygon fill="none" stroke="#000000" points="465,-179.5 465,-185.5 485,-185.5 485,-179.5 465,-179.5"/>
<polygon fill="none" stroke="#000000" points="445,-158.5 445,-179.5 485,-179.5 485,-158.5 445,-158.5"/>
<text text-anchor="start" x="462.5" y="-165.3" font-family="Times,serif" font-size="14.00" fill="#000000">&#45;</text>
<polygon fill="#cccccc" stroke="transparent" points="445,-152.5 445,-158.5 465,-158.5 465,-152.5 445,-152.5"/>
<polygon fill="none" stroke="#000000" points="445,-152.5 445,-158.5 465,-158.5 465,-152.5 445,-152.5"/>
</g>
<!-- a8&#45;&gt;a26 -->
<g id="edge43" class="edge">
<title>a8:out0&#45;&gt;a26:inp0</title>
<path fill="none" stroke="#000000" d="M388,-383.5C388,-365.1522 394.8706,-361.6162 400,-344 409.3983,-311.7227 408.1409,-206.1986 435.1781,-185.8963"/>
<polygon fill="#000000" stroke="#000000" points="436.6929,-189.0759 445,-182.5 434.4052,-182.4602 436.6929,-189.0759"/>
</g>
<!-- a9 -->
<g id="node10" class="node">
<title>a9</title>
<polygon fill="none" stroke="#000000" points="460,-315.5 460,-336.5 483,-336.5 483,-315.5 460,-315.5"/>
<text text-anchor="start" x="463" y="-322.3" font-family="Times,serif" font-size="14.00" fill="#000000">w1</text>
<polygon fill="#cccccc" stroke="transparent" points="460,-309.5 460,-315.5 483,-315.5 483,-309.5 460,-309.5"/>
<polygon fill="none" stroke="#000000" points="460,-309.5 460,-315.5 483,-315.5 483,-309.5 460,-309.5"/>
</g>
<!-- a11 -->
<g id="node12" class="node">
<title>a11</title>
<polygon fill="#cccccc" stroke="transparent" points="452,-256.5 452,-262.5 472,-262.5 472,-256.5 452,-256.5"/>
<polygon fill="none" stroke="#000000" points="452,-256.5 452,-262.5 472,-262.5 472,-256.5 452,-256.5"/>
<polygon fill="#cccccc" stroke="transparent" points="472,-256.5 472,-262.5 492,-262.5 492,-256.5 472,-256.5"/>
<polygon fill="none" stroke="#000000" points="472,-256.5 472,-262.5 492,-262.5 492,-256.5 472,-256.5"/>
<polygon fill="none" stroke="#000000" points="452,-235.5 452,-256.5 492,-256.5 492,-235.5 452,-235.5"/>
<text text-anchor="start" x="467.5" y="-242.3" font-family="Times,serif" font-size="14.00" fill="#000000">×</text>
<polygon fill="#cccccc" stroke="transparent" points="452,-229.5 452,-235.5 472,-235.5 472,-229.5 452,-229.5"/>
<polygon fill="none" stroke="#000000" points="452,-229.5 452,-235.5 472,-235.5 472,-229.5 452,-229.5"/>
</g>
<!-- a9&#45;&gt;a11 -->
<g id="edge19" class="edge">
<title>a9:out0&#45;&gt;a11:inp0</title>
<path fill="none" stroke="#000000" d="M472,-309.5C472,-291.981 465.2709,-285.9483 462.8526,-272.5571"/>
<polygon fill="#000000" stroke="#000000" points="466.3323,-272.1686 462,-262.5 459.3573,-272.7599 466.3323,-272.1686"/>
</g>
<!-- a10&#45;&gt;a11 -->
<g id="edge20" class="edge">
<title>a10:out0&#45;&gt;a11:inp1</title>
<path fill="none" stroke="#000000" d="M500,-383.5C500,-365.6709 505.4384,-361.7606 507,-344 508.596,-325.8478 510.0116,-320.9716 507,-303 504.3595,-287.2428 509.1715,-269.5559 501.6515,-262.5719"/>
<polygon fill="#000000" stroke="#000000" points="502.5905,-259.1978 492,-259.5 500.4674,-265.8681 502.5905,-259.1978"/>
</g>
<!-- a11&#45;&gt;a12 -->
<g id="edge22" class="edge">
<title>a11:out0&#45;&gt;a12:inp1</title>
<path fill="none" stroke="#000000" d="M452,-232.5C427.0593,-232.5 435.4008,-195.5737 419.8207,-185.1882"/>
<polygon fill="#000000" stroke="#000000" points="420.5693,-181.7644 410,-182.5 418.7211,-188.5161 420.5693,-181.7644"/>
</g>
<!-- a11&#45;&gt;a26 -->
<g id="edge44" class="edge">
<title>a11:out0&#45;&gt;a26:inp1</title>
<path fill="none" stroke="#000000" d="M462,-229.5C462,-213.0914 470.4178,-207.8032 473.706,-195.7385"/>
<polygon fill="#000000" stroke="#000000" points="477.2184,-195.86 475,-185.5 470.2736,-194.9822 477.2184,-195.86"/>
</g>
<!-- a20 -->
<g id="node21" class="node">
<title>a20</title>
<polygon fill="#cccccc" stroke="transparent" points="302,-102.5 302,-108.5 322,-108.5 322,-102.5 302,-102.5"/>
<polygon fill="none" stroke="#000000" points="302,-102.5 302,-108.5 322,-108.5 322,-102.5 302,-102.5"/>
<polygon fill="#cccccc" stroke="transparent" points="322,-102.5 322,-108.5 342,-108.5 342,-102.5 322,-102.5"/>
<polygon fill="none" stroke="#000000" points="322,-102.5 322,-108.5 342,-108.5 342,-102.5 322,-102.5"/>
<polygon fill="none" stroke="#000000" points="302,-81.5 302,-102.5 342,-102.5 342,-81.5 302,-81.5"/>
<text text-anchor="start" x="317.5" y="-88.3" font-family="Times,serif" font-size="14.00" fill="#000000">+</text>
<polygon fill="#cccccc" stroke="transparent" points="302,-75.5 302,-81.5 322,-81.5 322,-75.5 302,-75.5"/>
<polygon fill="none" stroke="#000000" points="302,-75.5 302,-81.5 322,-81.5 322,-75.5 302,-75.5"/>
</g>
<!-- a12&#45;&gt;a20 -->
<g id="edge33" class="edge">
<title>a12:out0&#45;&gt;a20:inp0</title>
<path fill="none" stroke="#000000" d="M370,-155.5C340.45,-155.5 317.5296,-144.5369 312.8693,-118.6993"/>
<polygon fill="#000000" stroke="#000000" points="316.3366,-118.1666 312,-108.5 309.3619,-118.7611 316.3366,-118.1666"/>
</g>
<!-- a32 -->
<g id="node33" class="node">
<title>a32</title>
<polygon fill="#cccccc" stroke="transparent" points="376,-102.5 376,-108.5 396,-108.5 396,-102.5 376,-102.5"/>
<polygon fill="none" stroke="#000000" points="376,-102.5 376,-108.5 396,-108.5 396,-102.5 376,-102.5"/>
<polygon fill="#cccccc" stroke="transparent" points="396,-102.5 396,-108.5 416,-108.5 416,-102.5 396,-102.5"/>
<polygon fill="none" stroke="#000000" points="396,-102.5 396,-108.5 416,-108.5 416,-102.5 396,-102.5"/>
<polygon fill="none" stroke="#000000" points="376,-81.5 376,-102.5 416,-102.5 416,-81.5 376,-81.5"/>
<text text-anchor="start" x="393.5" y="-88.3" font-family="Times,serif" font-size="14.00" fill="#000000">&#45;</text>
<polygon fill="#cccccc" stroke="transparent" points="376,-75.5 376,-81.5 396,-81.5 396,-75.5 376,-75.5"/>
<polygon fill="none" stroke="#000000" points="376,-75.5 376,-81.5 396,-81.5 396,-75.5 376,-75.5"/>
</g>
<!-- a12&#45;&gt;a32 -->
<g id="edge53" class="edge">
<title>a12:out0&#45;&gt;a32:inp0</title>
<path fill="none" stroke="#000000" d="M380,-152.5C380,-136.6183 383.8851,-130.5851 385.4028,-118.5504"/>
<polygon fill="#000000" stroke="#000000" points="388.9005,-118.69 386,-108.5 381.9129,-118.2747 388.9005,-118.69"/>
</g>
<!-- a13 -->
<g id="node14" class="node">
<title>a13</title>
<polygon fill="none" stroke="#000000" points="534,-238.5 534,-259.5 557,-259.5 557,-238.5 534,-238.5"/>
<text text-anchor="start" x="537" y="-245.3" font-family="Times,serif" font-size="14.00" fill="#000000">w1</text>
<polygon fill="#cccccc" stroke="transparent" points="534,-232.5 534,-238.5 557,-238.5 557,-232.5 534,-232.5"/>
<polygon fill="none" stroke="#000000" points="534,-232.5 534,-238.5 557,-238.5 557,-232.5 534,-232.5"/>
</g>
<!-- a19 -->
<g id="node20" class="node">
<title>a19</title>
<polygon fill="#cccccc" stroke="transparent" points="527,-179.5 527,-185.5 547,-185.5 547,-179.5 527,-179.5"/>
<polygon fill="none" stroke="#000000" points="527,-179.5 527,-185.5 547,-185.5 547,-179.5 527,-179.5"/>
<polygon fill="#cccccc" stroke="transparent" points="547,-179.5 547,-185.5 567,-185.5 567,-179.5 547,-179.5"/>
<polygon fill="none" stroke="#000000" points="547,-179.5 547,-185.5 567,-185.5 567,-179.5 547,-179.5"/>
<polygon fill="none" stroke="#000000" points="527,-158.5 527,-179.5 567,-179.5 567,-158.5 527,-158.5"/>
<text text-anchor="start" x="542.5" y="-165.3" font-family="Times,serif" font-size="14.00" fill="#000000">×</text>
<polygon fill="#cccccc" stroke="transparent" points="527,-152.5 527,-158.5 547,-158.5 547,-152.5 527,-152.5"/>
<polygon fill="none" stroke="#000000" points="527,-152.5 527,-158.5 547,-158.5 547,-152.5 527,-152.5"/>
</g>
<!-- a13&#45;&gt;a19 -->
<g id="edge31" class="edge">
<title>a13:out0&#45;&gt;a19:inp0</title>
<path fill="none" stroke="#000000" d="M546,-232.5C546,-215.0532 539.9438,-208.915 537.7673,-195.5322"/>
<polygon fill="#000000" stroke="#000000" points="541.2525,-195.2039 537,-185.5 534.2729,-195.7378 541.2525,-195.2039"/>
</g>
<!-- a18 -->
<g id="node19" class="node">
<title>a18</title>
<polygon fill="#cccccc" stroke="transparent" points="598,-256.5 598,-262.5 618,-262.5 618,-256.5 598,-256.5"/>
<polygon fill="none" stroke="#000000" points="598,-256.5 598,-262.5 618,-262.5 618,-256.5 598,-256.5"/>
<polygon fill="#cccccc" stroke="transparent" points="618,-256.5 618,-262.5 638,-262.5 638,-256.5 618,-256.5"/>
<polygon fill="none" stroke="#000000" points="618,-256.5 618,-262.5 638,-262.5 638,-256.5 618,-256.5"/>
<polygon fill="none" stroke="#000000" points="598,-235.5 598,-256.5 638,-256.5 638,-235.5 598,-235.5"/>
<text text-anchor="start" x="613.5" y="-242.3" font-family="Times,serif" font-size="14.00" fill="#000000">+</text>
<polygon fill="#cccccc" stroke="transparent" points="598,-229.5 598,-235.5 618,-235.5 618,-229.5 598,-229.5"/>
<polygon fill="none" stroke="#000000" points="598,-229.5 598,-235.5 618,-235.5 618,-229.5 598,-229.5"/>
</g>
<!-- a14&#45;&gt;a18 -->
<g id="edge29" class="edge">
<title>a14:out0&#45;&gt;a18:inp0</title>
<path fill="none" stroke="#000000" d="M581,-306.5C581,-287.4996 599.5164,-285.5285 605.8814,-272.3819"/>
<polygon fill="#000000" stroke="#000000" points="609.3258,-273.0115 608,-262.5 602.4814,-271.5441 609.3258,-273.0115"/>
</g>
<!-- a28 -->
<g id="node29" class="node">
<title>a28</title>
<polygon fill="#cccccc" stroke="transparent" points="744,-256.5 744,-262.5 764,-262.5 764,-256.5 744,-256.5"/>
<polygon fill="none" stroke="#000000" points="744,-256.5 744,-262.5 764,-262.5 764,-256.5 744,-256.5"/>
<polygon fill="#cccccc" stroke="transparent" points="764,-256.5 764,-262.5 784,-262.5 784,-256.5 764,-256.5"/>
<polygon fill="none" stroke="#000000" points="764,-256.5 764,-262.5 784,-262.5 784,-256.5 764,-256.5"/>
<polygon fill="none" stroke="#000000" points="744,-235.5 744,-256.5 784,-256.5 784,-235.5 744,-235.5"/>
<text text-anchor="start" x="761.5" y="-242.3" font-family="Times,serif" font-size="14.00" fill="#000000">&#45;</text>
<polygon fill="#cccccc" stroke="transparent" points="744,-229.5 744,-235.5 764,-235.5 764,-229.5 744,-229.5"/>
<polygon fill="none" stroke="#000000" points="744,-229.5 744,-235.5 764,-235.5 764,-229.5 744,-229.5"/>
</g>
<!-- a14&#45;&gt;a28 -->
<g id="edge45" class="edge">
<title>a14:out0&#45;&gt;a28:inp0</title>
<path fill="none" stroke="#000000" d="M581,-306.5C581,-239.2782 663.6232,-289.4085 727,-267 730.4063,-265.7956 732.5053,-264.2095 734.4805,-262.8062"/>
<polygon fill="#000000" stroke="#000000" points="735.7018,-266.0872 744,-259.5 733.4052,-259.4747 735.7018,-266.0872"/>
</g>
<!-- a15 -->
<g id="node16" class="node">
<title>a15</title>
<polygon fill="none" stroke="#000000" points="610,-392.5 610,-413.5 633,-413.5 633,-392.5 610,-392.5"/>
<text text-anchor="start" x="613" y="-399.3" font-family="Times,serif" font-size="14.00" fill="#000000">w1</text>
<polygon fill="#cccccc" stroke="transparent" points="610,-386.5 610,-392.5 633,-392.5 633,-386.5 610,-386.5"/>
<polygon fill="none" stroke="#000000" points="610,-386.5 610,-392.5 633,-392.5 633,-386.5 610,-386.5"/>
</g>
<!-- a17 -->
<g id="node18" class="node">
<title>a17</title>
<polygon fill="#cccccc" stroke="transparent" points="649,-333.5 649,-339.5 669,-339.5 669,-333.5 649,-333.5"/>
<polygon fill="none" stroke="#000000" points="649,-333.5 649,-339.5 669,-339.5 669,-333.5 649,-333.5"/>
<polygon fill="#cccccc" stroke="transparent" points="669,-333.5 669,-339.5 689,-339.5 689,-333.5 669,-333.5"/>
<polygon fill="none" stroke="#000000" points="669,-333.5 669,-339.5 689,-339.5 689,-333.5 669,-333.5"/>
<polygon fill="none" stroke="#000000" points="649,-312.5 649,-333.5 689,-333.5 689,-312.5 649,-312.5"/>
<text text-anchor="start" x="664.5" y="-319.3" font-family="Times,serif" font-size="14.00" fill="#000000">×</text>
<polygon fill="#cccccc" stroke="transparent" points="649,-306.5 649,-312.5 669,-312.5 669,-306.5 649,-306.5"/>
<polygon fill="none" stroke="#000000" points="649,-306.5 649,-312.5 669,-312.5 669,-306.5 649,-306.5"/>
</g>
<!-- a15&#45;&gt;a17 -->
<g id="edge27" class="edge">
<title>a15:out0&#45;&gt;a17:inp0</title>
<path fill="none" stroke="#000000" d="M633,-389.5C652.7998,-389.5 635.162,-355.1813 640.3377,-341.7756"/>
<polygon fill="#000000" stroke="#000000" points="642.2799,-344.6909 649,-336.5 638.6387,-338.7124 642.2799,-344.6909"/>
</g>
<!-- a16&#45;&gt;a17 -->
<g id="edge28" class="edge">
<title>a16:out0&#45;&gt;a17:inp1</title>
<path fill="none" stroke="#000000" d="M684,-383.5C684,-367.6626 680.7624,-361.5667 679.4977,-349.5346"/>
<polygon fill="#000000" stroke="#000000" points="682.9912,-349.3143 679,-339.5 675.9998,-349.6611 682.9912,-349.3143"/>
</g>
<!-- a17&#45;&gt;a18 -->
<g id="edge30" class="edge">
<title>a17:out0&#45;&gt;a18:inp1</title>
<path fill="none" stroke="#000000" d="M649,-309.5C631.2237,-309.5 648.3967,-278.9824 645.9108,-265.631"/>
<polygon fill="#000000" stroke="#000000" points="648.0481,-262.8594 638,-259.5 643.7601,-268.3923 648.0481,-262.8594"/>
</g>
<!-- a17&#45;&gt;a28 -->
<g id="edge46" class="edge">
<title>a17:out0&#45;&gt;a28:inp1</title>
<path fill="none" stroke="#000000" d="M659,-306.5C659,-255.8371 757.5632,-308.1713 772.1936,-272.7971"/>
<polygon fill="#000000" stroke="#000000" points="775.7194,-272.9544 774,-262.5 768.8247,-271.7448 775.7194,-272.9544"/>
</g>
<!-- a18&#45;&gt;a19 -->
<g id="edge32" class="edge">
<title>a18:out0&#45;&gt;a19:inp1</title>
<path fill="none" stroke="#000000" d="M598,-232.5C576.1429,-232.5 587.4368,-197.5604 576.4573,-186.0959"/>
<polygon fill="#000000" stroke="#000000" points="577.5911,-182.7825 567,-182.5 575.1032,-189.3256 577.5911,-182.7825"/>
</g>
<!-- a19&#45;&gt;a20 -->
<g id="edge34" class="edge">
<title>a19:out0&#45;&gt;a20:inp1</title>
<path fill="none" stroke="#000000" d="M527,-155.5C515.5195,-155.5 513.1222,-151.8458 502,-149 438.5069,-132.754 420.9798,-134.3029 359,-113 355.5832,-111.8256 353.4829,-110.2433 351.5096,-108.8347"/>
<polygon fill="#000000" stroke="#000000" points="352.5948,-105.5064 342,-105.5 350.2784,-112.112 352.5948,-105.5064"/>
</g>
<!-- a19&#45;&gt;a32 -->
<g id="edge54" class="edge">
<title>a19:out0&#45;&gt;a32:inp1</title>
<path fill="none" stroke="#000000" d="M527,-155.5C526.3032,-155.5 451.923,-121.5332 425.3219,-109.5917"/>
<polygon fill="#000000" stroke="#000000" points="426.5635,-106.3144 416,-105.5 423.75,-112.7241 426.5635,-106.3144"/>
</g>
<!-- a20&#45;&gt;a35 -->
<g id="edge60" class="edge">
<title>a20:out0&#45;&gt;a35:inp1</title>
<path fill="none" stroke="#000000" d="M312,-75.5C312,-47.6836 269.125,-58.815 258.4063,-40.7355"/>
<polygon fill="#000000" stroke="#000000" points="261.7973,-39.868 256,-31 255.0017,-41.5477 261.7973,-39.868"/>
</g>
<!-- a25 -->
<g id="node26" class="node">
<title>a25</title>
<polygon fill="#cccccc" stroke="transparent" points="191,-179.5 191,-185.5 211,-185.5 211,-179.5 191,-179.5"/>
<polygon fill="none" stroke="#000000" points="191,-179.5 191,-185.5 211,-185.5 211,-179.5 191,-179.5"/>
<polygon fill="#cccccc" stroke="transparent" points="211,-179.5 211,-185.5 231,-185.5 231,-179.5 211,-179.5"/>
<polygon fill="none" stroke="#000000" points="211,-179.5 211,-185.5 231,-185.5 231,-179.5 211,-179.5"/>
<polygon fill="none" stroke="#000000" points="191,-158.5 191,-179.5 231,-179.5 231,-158.5 191,-158.5"/>
<text text-anchor="start" x="206.5" y="-165.3" font-family="Times,serif" font-size="14.00" fill="#000000">+</text>
<polygon fill="#cccccc" stroke="transparent" points="191,-152.5 191,-158.5 211,-158.5 211,-152.5 191,-152.5"/>
<polygon fill="none" stroke="#000000" points="191,-152.5 191,-158.5 211,-158.5 211,-152.5 191,-152.5"/>
</g>
<!-- a21&#45;&gt;a25 -->
<g id="edge41" class="edge">
<title>a21:out0&#45;&gt;a25:inp0</title>
<path fill="none" stroke="#000000" d="M92,-306.5C92,-262.4097 154.958,-301.0235 183,-267 204.289,-241.1699 201.814,-225.7996 201.1276,-195.7897"/>
<polygon fill="#000000" stroke="#000000" points="204.6239,-195.4558 201,-185.5 197.6244,-195.5427 204.6239,-195.4558"/>
</g>
<!-- a33 -->
<g id="node34" class="node">
<title>a33</title>
<polygon fill="#cccccc" stroke="transparent" points="265,-179.5 265,-185.5 285,-185.5 285,-179.5 265,-179.5"/>
<polygon fill="none" stroke="#000000" points="265,-179.5 265,-185.5 285,-185.5 285,-179.5 265,-179.5"/>
<polygon fill="#cccccc" stroke="transparent" points="285,-179.5 285,-185.5 305,-185.5 305,-179.5 285,-179.5"/>
<polygon fill="none" stroke="#000000" points="285,-179.5 285,-185.5 305,-185.5 305,-179.5 285,-179.5"/>
<polygon fill="none" stroke="#000000" points="265,-158.5 265,-179.5 305,-179.5 305,-158.5 265,-158.5"/>
<text text-anchor="start" x="282.5" y="-165.3" font-family="Times,serif" font-size="14.00" fill="#000000">&#45;</text>
<polygon fill="#cccccc" stroke="transparent" points="265,-152.5 265,-158.5 285,-158.5 285,-152.5 265,-152.5"/>
<polygon fill="none" stroke="#000000" points="265,-152.5 265,-158.5 285,-158.5 285,-152.5 265,-152.5"/>
</g>
<!-- a21&#45;&gt;a33 -->
<g id="edge55" class="edge">
<title>a21:out0&#45;&gt;a33:inp0</title>
<path fill="none" stroke="#000000" d="M92,-306.5C92,-252.8781 163.2284,-299.3403 206,-267 221.699,-255.1297 237.0746,-201.2561 255.6238,-186.3389"/>
<polygon fill="#000000" stroke="#000000" points="257.0718,-189.5281 265,-182.5 254.4194,-183.05 257.0718,-189.5281"/>
</g>
<!-- a22 -->
<g id="node23" class="node">
<title>a22</title>
<polygon fill="none" stroke="#000000" points="238,-315.5 238,-336.5 261,-336.5 261,-315.5 238,-315.5"/>
<text text-anchor="start" x="241" y="-322.3" font-family="Times,serif" font-size="14.00" fill="#000000">w2</text>
<polygon fill="#cccccc" stroke="transparent" points="238,-309.5 238,-315.5 261,-315.5 261,-309.5 238,-309.5"/>
<polygon fill="none" stroke="#000000" points="238,-309.5 238,-315.5 261,-315.5 261,-309.5 238,-309.5"/>
</g>
<!-- a24 -->
<g id="node25" class="node">
<title>a24</title>
<polygon fill="#cccccc" stroke="transparent" points="280,-256.5 280,-262.5 300,-262.5 300,-256.5 280,-256.5"/>
<polygon fill="none" stroke="#000000" points="280,-256.5 280,-262.5 300,-262.5 300,-256.5 280,-256.5"/>
<polygon fill="#cccccc" stroke="transparent" points="300,-256.5 300,-262.5 320,-262.5 320,-256.5 300,-256.5"/>
<polygon fill="none" stroke="#000000" points="300,-256.5 300,-262.5 320,-262.5 320,-256.5 300,-256.5"/>
<polygon fill="none" stroke="#000000" points="280,-235.5 280,-256.5 320,-256.5 320,-235.5 280,-235.5"/>
<text text-anchor="start" x="295.5" y="-242.3" font-family="Times,serif" font-size="14.00" fill="#000000">×</text>
<polygon fill="#cccccc" stroke="transparent" points="280,-229.5 280,-235.5 300,-235.5 300,-229.5 280,-229.5"/>
<polygon fill="none" stroke="#000000" points="280,-229.5 280,-235.5 300,-235.5 300,-229.5 280,-229.5"/>
</g>
<!-- a22&#45;&gt;a24 -->
<g id="edge39" class="edge">
<title>a22:out0&#45;&gt;a24:inp0</title>
<path fill="none" stroke="#000000" d="M261,-312.5C281.3315,-312.5 264.6479,-277.5117 271.0988,-264.3911"/>
<polygon fill="#000000" stroke="#000000" points="272.9215,-267.3832 280,-259.5 269.5504,-261.2484 272.9215,-267.3832"/>
</g>
<!-- a23&#45;&gt;a24 -->
<g id="edge40" class="edge">
<title>a23:out0&#45;&gt;a24:inp1</title>
<path fill="none" stroke="#000000" d="M312,-306.5C312,-290.7476 310.705,-284.5315 310.1991,-272.5042"/>
<polygon fill="#000000" stroke="#000000" points="313.6984,-272.4284 310,-262.5 306.6997,-272.5677 313.6984,-272.4284"/>
</g>
<!-- a24&#45;&gt;a25 -->
<g id="edge42" class="edge">
<title>a24:out0&#45;&gt;a25:inp1</title>
<path fill="none" stroke="#000000" d="M280,-232.5C253.0181,-232.5 259.3826,-194.8993 241.2584,-184.9116"/>
<polygon fill="#000000" stroke="#000000" points="241.5356,-181.3814 231,-182.5 239.9336,-188.1957 241.5356,-181.3814"/>
</g>
<!-- a24&#45;&gt;a33 -->
<g id="edge56" class="edge">
<title>a24:out0&#45;&gt;a33:inp1</title>
<path fill="none" stroke="#000000" d="M290,-229.5C290,-213.6626 293.2376,-207.5667 294.5023,-195.5346"/>
<polygon fill="#000000" stroke="#000000" points="298.0002,-195.6611 295,-185.5 291.0088,-195.3143 298.0002,-195.6611"/>
</g>
<!-- a25&#45;&gt;a35 -->
<g id="edge61" class="edge">
<title>a25:out0&#45;&gt;a35:inp2</title>
<path fill="none" stroke="#000000" d="M201,-152.5C201,-92.6349 267.7445,-94.0666 275.3054,-41.1453"/>
<polygon fill="#000000" stroke="#000000" points="278.8087,-41.2157 276,-31 271.825,-40.7376 278.8087,-41.2157"/>
</g>
<!-- a30 -->
<g id="node31" class="node">
<title>a30</title>
<polygon fill="#cccccc" stroke="transparent" points="450,-102.5 450,-108.5 470,-108.5 470,-102.5 450,-102.5"/>
<polygon fill="none" stroke="#000000" points="450,-102.5 450,-108.5 470,-108.5 470,-102.5 450,-102.5"/>
<polygon fill="#cccccc" stroke="transparent" points="470,-102.5 470,-108.5 490,-108.5 490,-102.5 470,-102.5"/>
<polygon fill="none" stroke="#000000" points="470,-102.5 470,-108.5 490,-108.5 490,-102.5 470,-102.5"/>
<polygon fill="none" stroke="#000000" points="450,-81.5 450,-102.5 490,-102.5 490,-81.5 450,-81.5"/>
<text text-anchor="start" x="465.5" y="-88.3" font-family="Times,serif" font-size="14.00" fill="#000000">+</text>
<polygon fill="#cccccc" stroke="transparent" points="450,-75.5 450,-81.5 470,-81.5 470,-75.5 450,-75.5"/>
<polygon fill="none" stroke="#000000" points="450,-75.5 450,-81.5 470,-81.5 470,-75.5 450,-75.5"/>
</g>
<!-- a26&#45;&gt;a30 -->
<g id="edge49" class="edge">
<title>a26:out0&#45;&gt;a30:inp0</title>
<path fill="none" stroke="#000000" d="M455,-152.5C455,-136.6626 458.2376,-130.5667 459.5023,-118.5346"/>
<polygon fill="#000000" stroke="#000000" points="463.0002,-118.6611 460,-108.5 456.0088,-118.3143 463.0002,-118.6611"/>
</g>
<!-- a34 -->
<g id="node35" class="node">
<title>a34</title>
<polygon fill="#cccccc" stroke="transparent" points="524,-102.5 524,-108.5 544,-108.5 544,-102.5 524,-102.5"/>
<polygon fill="none" stroke="#000000" points="524,-102.5 524,-108.5 544,-108.5 544,-102.5 524,-102.5"/>
<polygon fill="#cccccc" stroke="transparent" points="544,-102.5 544,-108.5 564,-108.5 564,-102.5 544,-102.5"/>
<polygon fill="none" stroke="#000000" points="544,-102.5 544,-108.5 564,-108.5 564,-102.5 544,-102.5"/>
<polygon fill="none" stroke="#000000" points="524,-81.5 524,-102.5 564,-102.5 564,-81.5 524,-81.5"/>
<text text-anchor="start" x="541.5" y="-88.3" font-family="Times,serif" font-size="14.00" fill="#000000">&#45;</text>
<polygon fill="#cccccc" stroke="transparent" points="524,-75.5 524,-81.5 544,-81.5 544,-75.5 524,-75.5"/>
<polygon fill="none" stroke="#000000" points="524,-75.5 524,-81.5 544,-81.5 544,-75.5 524,-75.5"/>
</g>
<!-- a26&#45;&gt;a34 -->
<g id="edge57" class="edge">
<title>a26:out0&#45;&gt;a34:inp0</title>
<path fill="none" stroke="#000000" d="M455,-152.5C455,-148.804 495.8704,-121.153 514.821,-110.0723"/>
<polygon fill="#000000" stroke="#000000" points="516.6096,-113.0916 524,-105.5 513.4885,-106.826 516.6096,-113.0916"/>
</g>
<!-- a27 -->
<g id="node28" class="node">
<title>a27</title>
<polygon fill="none" stroke="#000000" points="680,-238.5 680,-259.5 703,-259.5 703,-238.5 680,-238.5"/>
<text text-anchor="start" x="683" y="-245.3" font-family="Times,serif" font-size="14.00" fill="#000000">w3</text>
<polygon fill="#cccccc" stroke="transparent" points="680,-232.5 680,-238.5 703,-238.5 703,-232.5 680,-232.5"/>
<polygon fill="none" stroke="#000000" points="680,-232.5 680,-238.5 703,-238.5 703,-232.5 680,-232.5"/>
</g>
<!-- a29 -->
<g id="node30" class="node">
<title>a29</title>
<polygon fill="#cccccc" stroke="transparent" points="641,-179.5 641,-185.5 661,-185.5 661,-179.5 641,-179.5"/>
<polygon fill="none" stroke="#000000" points="641,-179.5 641,-185.5 661,-185.5 661,-179.5 641,-179.5"/>
<polygon fill="#cccccc" stroke="transparent" points="661,-179.5 661,-185.5 681,-185.5 681,-179.5 661,-179.5"/>
<polygon fill="none" stroke="#000000" points="661,-179.5 661,-185.5 681,-185.5 681,-179.5 661,-179.5"/>
<polygon fill="none" stroke="#000000" points="641,-158.5 641,-179.5 681,-179.5 681,-158.5 641,-158.5"/>
<text text-anchor="start" x="656.5" y="-165.3" font-family="Times,serif" font-size="14.00" fill="#000000">×</text>
<polygon fill="#cccccc" stroke="transparent" points="641,-152.5 641,-158.5 661,-158.5 661,-152.5 641,-152.5"/>
<polygon fill="none" stroke="#000000" points="641,-152.5 641,-158.5 661,-158.5 661,-152.5 641,-152.5"/>
</g>
<!-- a27&#45;&gt;a29 -->
<g id="edge47" class="edge">
<title>a27:out0&#45;&gt;a29:inp0</title>
<path fill="none" stroke="#000000" d="M680,-235.5C657.7224,-235.5 652.2741,-217.2182 651.2199,-195.609"/>
<polygon fill="#000000" stroke="#000000" points="654.7167,-195.4215 651,-185.5 647.7184,-195.5738 654.7167,-195.4215"/>
</g>
<!-- a28&#45;&gt;a29 -->
<g id="edge48" class="edge">
<title>a28:out0&#45;&gt;a29:inp1</title>
<path fill="none" stroke="#000000" d="M744,-232.5C729.059,-232.5 707.5634,-197.5604 690.4716,-186.0959"/>
<polygon fill="#000000" stroke="#000000" points="691.5912,-182.7772 681,-182.5 689.1067,-189.3215 691.5912,-182.7772"/>
</g>
<!-- a29&#45;&gt;a30 -->
<g id="edge50" class="edge">
<title>a29:out0&#45;&gt;a30:inp1</title>
<path fill="none" stroke="#000000" d="M641,-155.5C578.5208,-155.5 565.4452,-135.0864 507,-113 503.6203,-111.7228 501.5246,-110.1276 499.5448,-108.7371"/>
<polygon fill="#000000" stroke="#000000" points="500.5943,-105.3973 490,-105.5 498.346,-112.0265 500.5943,-105.3973"/>
</g>
<!-- a29&#45;&gt;a34 -->
<g id="edge58" class="edge">
<title>a29:out0&#45;&gt;a34:inp1</title>
<path fill="none" stroke="#000000" d="M641,-155.5C603.8617,-155.5 604.3427,-114.0808 573.9642,-106.6383"/>
<polygon fill="#000000" stroke="#000000" points="574.3327,-103.1577 564,-105.5 573.5381,-110.1124 574.3327,-103.1577"/>
</g>
<!-- a30&#45;&gt;a35 -->
<g id="edge62" class="edge">
<title>a30:out0&#45;&gt;a35:inp3</title>
<path fill="none" stroke="#000000" d="M450,-78.5C441.911,-78.5 440.6578,-74.6058 433,-72 376.3566,-52.7251 304.9464,-89.7324 296.7725,-41.1085"/>
<polygon fill="#000000" stroke="#000000" points="300.2519,-40.7042 296,-31 293.2723,-41.2377 300.2519,-40.7042"/>
</g>
<!-- a31&#45;&gt;a35 -->
<g id="edge63" class="edge">
<title>a31:out0&#45;&gt;a35:inp4</title>
<path fill="none" stroke="#000000" d="M136,-229.5C136,-151.9686 154.1425,-124.7099 211,-72 244.8692,-40.6015 305.5267,-74.8261 314.7977,-41.1155"/>
<polygon fill="#000000" stroke="#000000" points="318.2952,-41.3432 316,-31 311.3441,-40.517 318.2952,-41.3432"/>
</g>
<!-- a32&#45;&gt;a35 -->
<g id="edge64" class="edge">
<title>a32:out0&#45;&gt;a35:inp5</title>
<path fill="none" stroke="#000000" d="M376,-78.5C364.8955,-78.5 345.7614,-56.6783 338.7108,-40.9639"/>
<polygon fill="#000000" stroke="#000000" points="342.0025,-39.7304 336,-31 335.248,-41.5681 342.0025,-39.7304"/>
</g>
<!-- a33&#45;&gt;a35 -->
<g id="edge65" class="edge">
<title>a33:out0&#45;&gt;a35:inp6</title>
<path fill="none" stroke="#000000" d="M275,-152.5C275,-116.4472 265.0811,-102.0506 285,-72 302.9303,-44.9494 345.2404,-62.4649 354.2812,-40.8774"/>
<polygon fill="#000000" stroke="#000000" points="357.7337,-41.452 356,-31 350.8374,-40.2519 357.7337,-41.452"/>
</g>
<!-- a34&#45;&gt;a35 -->
<g id="edge66" class="edge">
<title>a34:out0&#45;&gt;a35:inp7</title>
<path fill="none" stroke="#000000" d="M524,-78.5C515.911,-78.5 514.579,-74.8267 507,-72 456.7356,-53.2531 444.6629,-30.9848 396.1999,-28.2745"/>
<polygon fill="#000000" stroke="#000000" points="396.0906,-24.7703 386,-28 395.9022,-31.7678 396.0906,-24.7703"/>
</g>
</g>
</svg>
